<?xml version="1.0"?><svg id="Artwork" xmlns="http://www.w3.org/2000/svg" viewBox="0 0 3600 1648.83"><path d="M3265.77,1290.22c-13.19-7.86-29.76-11.8-49.7-11.8-8.37,0-16.88,1.28-25.57,3.86-8.69,2.58-17.07,6.18-25.1,10.84-8.03,4.65-15.28,10.11-21.71,16.38-5.22,5.07-9.5,10.75-13.23,16.77-3.55-8.62-7.78-16.05-12.83-22.07-7.4-8.84-16.4-15.33-27.01-19.51-10.61-4.17-22.52-6.26-35.7-6.26-8.68,0-17.37,1.37-26.06,4.09-8.68,2.73-16.97,6.51-24.85,11.32-7.87,4.82-14.71,10.59-20.5,17.34-1.59,1.85-2.88,3.92-4.3,5.89l-1.01-33.82h-66.09v254.81h68.51v-152.69c0-6.74,1.37-13.01,4.1-18.79,2.73-5.78,6.35-10.84,10.85-15.17,4.5-4.34,9.89-7.71,16.16-10.12,6.28-2.41,13.11-3.62,20.51-3.62,9,0,16.57,1.93,22.68,5.79,6.1,3.84,10.85,9.55,14.23,17.1,3.38,7.54,5.07,16.61,5.07,27.22v150.28h68.51v-152.21c0-7.06,1.29-13.49,3.87-19.26,2.57-5.78,6.19-10.84,10.85-15.17,4.66-4.34,10.14-7.71,16.41-10.12,6.27-2.41,13.1-3.62,20.51-3.62,9.64,0,17.53,1.86,23.64,5.54,6.1,3.69,10.77,9.24,13.99,16.62,3.21,7.39,4.83,16.86,4.83,28.42v149.8h68.51v-154.61c0-22.81-3.31-42.07-9.89-57.81-6.6-15.73-16.48-27.53-29.67-35.4"></path><path d="M1887.82,1347.06c10.13-6.26,21.79-9.39,34.98-9.39,8.36,0,16.48,1.45,24.37,4.34,7.87,2.88,15.2,6.83,21.95,11.8,6.75,4.98,12.38,10.52,16.88,16.62l37.64-45.28c-10.62-14.77-25.42-26.32-44.4-34.68-18.97-8.34-39.89-12.52-62.72-12.52-24.45,0-46.32,5.78-65.62,17.34-19.3,11.57-34.49,27.38-45.6,47.45-11.1,20.07-16.64,42.63-16.64,67.68s5.54,48.01,16.64,67.92c11.1,19.91,26.3,35.64,45.6,47.21,19.3,11.55,41.17,17.34,65.62,17.34,21.54,0,41.97-4.26,61.28-12.76,19.3-8.51,34.41-19.66,45.35-33.48l-37.15-45.28c-5.48,6.74-11.51,12.53-18.1,17.35-6.59,4.82-13.58,8.43-20.98,10.84-7.4,2.41-15.28,3.62-23.65,3.62-12.86,0-24.44-3.3-34.73-9.89-10.3-6.58-18.43-15.25-24.36-26-5.96-10.75-8.93-23.04-8.93-36.85s2.89-26.65,8.68-37.58c5.79-10.9,13.75-19.5,23.89-25.77"></path><path d="M3521.84,1283.24l-53.56,150.28c-2.41,7.5-4.81,14.54-7.21,21.2-.57-1.84-1.09-3.66-1.72-5.54-2.41-7.23-4.9-13.57-7.47-19.04l-62.24-146.91h-77.68l115.28,253.83-47.74,111.76h69.48l43.91-110.79,107.11-254.81h-78.16Z"></path><path d="M2812.31,1383.91h-117.16c1.27-5.55,2.96-10.74,5.23-15.41,5.14-10.6,12.62-18.62,22.43-24.09,9.82-5.46,21.8-8.18,35.95-8.18,9.65,0,18.34,1.92,26.05,5.77,7.72,3.85,14.07,9.32,19.07,16.38,4.98,7.07,7.78,14.94,8.43,23.61v1.93Zm32.09-70.09c-10.78-11.4-23.57-20.23-38.36-26.49-14.8-6.27-30.88-9.39-48.25-9.39-18.65,0-35.95,3.29-51.86,9.87-15.92,6.59-29.67,15.9-41.26,27.94-11.58,12.04-20.58,26.25-27.02,42.63-6.44,16.38-9.64,34.36-9.64,53.95,0,25.37,5.79,47.85,17.37,67.44,11.57,19.59,27.65,35,48.25,46.24,20.58,11.24,44.71,16.86,72.37,16.86,11.59,0,23.32-1.45,35.23-4.34,11.89-2.88,23.47-7.14,34.73-12.76,11.26-5.61,21.55-12.6,30.88-20.95l-32.81-45.76c-10.61,8.67-20.59,14.78-29.92,18.31-9.33,3.53-19.61,5.29-30.87,5.29-16.41,0-30.64-3.13-42.7-9.39-12.07-6.25-21.4-15.01-27.98-26.25-3.74-6.37-6.3-13.48-7.91-21.19h181.85l.48-21.19c.64-18.31-1.93-35.17-7.72-50.58-5.79-15.41-14.07-28.82-24.84-40.22"></path><path d="M1580.48,1408.96l19.28-51.06c2.56-7.39,5.3-14.94,8.2-22.64,2.89-7.7,5.62-15.65,8.2-23.84,2.55-8.13,5.03-16.09,7.42-23.9,2.38,7.56,4.88,15.43,7.54,23.65,2.89,9,5.7,17.51,8.43,25.54,2.74,8.03,5.07,14.61,7,19.74l19.67,52.51h-85.75Zm12.04-208.08l-132.21,337.17h71.41l26.74-70.81h129.59l26.53,70.81h74.3l-131.72-337.17h-64.65Z"></path><path d="M2219.2,1448.69c-5.3,11.08-12.78,19.68-22.44,25.77-9.64,6.1-20.91,9.15-33.77,9.15s-23.57-3.05-33.06-9.15c-9.48-6.09-16.97-14.7-22.43-25.77-5.48-11.08-8.21-24-8.21-38.77s2.73-27.14,8.21-38.05c5.46-10.92,12.95-19.51,22.43-25.77,9.49-6.26,20.51-9.39,33.06-9.39s24.12,3.13,33.77,9.39c9.65,6.26,17.13,14.85,22.44,25.77,5.31,10.91,7.97,23.6,7.97,38.05s-2.66,27.69-7.97,38.77m7-131.62c-4.92-6.77-10.5-13.01-17.13-18.42-7.89-6.42-17.05-11.48-27.5-15.17-10.46-3.69-21.96-5.54-34.5-5.54-22.19,0-41.97,5.72-59.34,17.1-17.38,11.4-31.13,26.97-41.26,46.72-10.14,19.75-15.2,42.47-15.2,68.16s4.98,48.49,14.96,68.39c9.97,19.91,23.48,35.64,40.52,47.21,17.05,11.55,36.2,17.35,57.42,17.35,11.9,0,23.16-1.85,33.77-5.54,10.61-3.69,20.18-8.67,28.71-14.93,7.17-5.28,13.34-11.21,18.58-17.75v33.39h69v-254.81h-68.03v33.83Z"></path><path d="M2519.27,1449.91c-5.46,11.24-13.02,20.06-22.67,26.49-9.65,6.42-20.91,9.63-33.77,9.63s-24.05-3.21-33.53-9.63c-9.49-6.43-16.88-15.25-22.19-26.49-5.3-11.24-7.96-24.41-7.96-39.5s2.65-27.86,7.96-39.25c5.31-11.4,12.7-20.24,22.19-26.5,9.49-6.26,20.67-9.39,33.53-9.39s24.12,3.13,33.77,9.39c9.65,6.26,17.21,15.1,22.67,26.5,5.48,11.4,8.21,24.48,8.21,39.25s-2.73,28.26-8.21,39.5m5.8-139.69c-3.91-4.08-8.3-7.94-13.27-11.56-8.85-6.42-18.82-11.48-29.92-15.18-11.1-3.69-22.6-5.54-34.5-5.54-22.52,0-42.54,5.78-60.06,17.34-17.54,11.56-31.37,27.3-41.5,47.21-10.14,19.91-15.2,42.55-15.2,67.92s5.06,48.89,15.2,68.64c10.13,19.75,24.04,35.33,41.73,46.72,17.69,11.4,37.63,17.1,59.83,17.1,11.9,0,23.24-1.69,34.02-5.06,10.77-3.38,20.42-8.03,28.95-13.97,6.79-4.73,12.46-9.94,17.11-15.59l1.47,29.81h64.65v-356.44h-68.51v128.61Z"></path><rect x="3310.59" y="729.25" width="68.52" height="356.44"></rect><path d="M2324.96,768.75c7.4,6.43,17.69,9.63,30.88,9.63s23.07-3.37,30.64-10.11c7.56-6.74,11.34-15.73,11.34-26.97s-3.7-20.63-11.1-27.22c-7.4-6.58-17.69-9.87-30.88-9.87s-23.09,3.45-30.64,10.35c-7.56,6.91-11.34,15.81-11.34,26.73,0,11.88,3.7,21.03,11.1,27.46"></path><path d="M2504.94,920.47c5.8-10.9,13.68-19.57,23.65-26,9.97-6.43,21.39-9.64,34.25-9.64s23.8,3.13,33.78,9.39c9.97,6.27,17.77,14.94,23.4,26.02,5.63,11.08,8.45,23.68,8.45,37.81s-2.82,26.25-8.45,37.33c-5.63,11.08-13.43,19.75-23.4,26.02-9.98,6.26-21.23,9.39-33.78,9.39s-24.28-3.13-34.25-9.39c-9.97-6.27-17.84-14.94-23.65-26.02-5.79-11.08-8.52-23.52-8.19-37.33-.33-14.13,2.41-26.65,8.19-37.58m-11.82,152.94c20.42,11.4,43.67,17.1,69.71,17.1s48.81-5.7,69.24-17.1c20.42-11.39,36.43-27.05,48-46.96,11.59-19.91,17.38-42.7,17.38-68.39s-5.79-48.41-17.38-68.16c-11.57-19.75-27.58-35.4-48-46.96-20.43-11.56-43.51-17.34-69.24-17.34s-49.29,5.78-69.71,17.34c-20.43,11.56-36.51,27.22-48.25,46.96-11.75,19.75-17.62,42.48-17.62,68.16s5.86,48.49,17.62,68.39c11.73,19.91,27.81,35.58,48.25,46.96"></path><path d="M3077.49,919.51c5.47-10.92,12.95-19.51,22.43-25.77,9.49-6.26,20.51-9.39,33.06-9.39s24.12,3.13,33.77,9.39c9.65,6.26,17.13,14.85,22.44,25.77,5.31,10.91,7.97,23.6,7.97,38.05s-2.65,27.69-7.97,38.77c-5.31,11.08-12.78,19.67-22.44,25.77-9.64,6.1-20.91,9.15-33.77,9.15s-23.58-3.05-33.06-9.15c-9.48-6.1-16.96-14.7-22.43-25.77s-8.2-24.01-8.2-38.77,2.73-27.14,8.2-38.05m-20.75,153.65c17.05,11.56,36.19,17.35,57.42,17.35,11.9,0,23.15-1.85,33.77-5.55,10.6-3.69,20.18-8.67,28.71-14.92,7.19-5.28,13.33-11.22,18.57-17.75v33.39h69v-254.81h-68.03v33.82c-4.92-6.77-10.5-13.01-17.13-18.41-7.88-6.42-17.06-11.48-27.5-15.17-10.45-3.69-21.95-5.54-34.49-5.54-22.2,0-41.98,5.71-59.35,17.1-17.37,11.4-31.12,26.98-41.26,46.73-10.13,19.75-15.19,42.47-15.19,68.16s4.98,48.49,14.95,68.39c9.97,19.91,23.48,35.64,40.53,47.21"></path><polygon points="2242.44 766.33 2173.92 766.33 2173.92 830.88 2126.16 830.88 2126.16 892.05 2173.92 892.05 2173.92 1085.69 2242.44 1085.69 2242.44 892.05 2294.55 892.05 2294.55 830.88 2242.44 830.88 2242.44 766.33"></polygon><rect x="2322.07" y="830.88" width="68.51" height="254.81"></rect><path d="M2967.27,1085.69v-156.06c0-22.8-3.29-41.99-9.89-57.57-6.6-15.57-16.41-27.22-29.43-34.92-13.03-7.71-29.2-11.56-48.49-11.56-14.15,0-27.67,2.89-40.53,8.67-12.87,5.78-23.89,13.41-33.05,22.88-2.25,2.33-4.33,4.73-6.25,7.18l-1.23-33.43h-65.62v254.81h68.52v-153.18c0-6.74,1.37-13,4.1-18.78,2.72-5.78,6.43-10.92,11.1-15.41,4.66-4.49,10.29-7.95,16.89-10.36,6.59-2.41,13.75-3.61,21.47-3.61,9.65-.64,17.77,.88,24.36,4.58,6.59,3.69,11.49,9.39,14.72,17.1,3.21,7.71,4.82,17.34,4.82,28.9v150.77h68.51Z"></path><path d="M1500.36,748.51v337.18h70.93v-216.99l162.59,216.99h65.62v-337.18h-70.92v92c0,13.81,.16,26.57,.48,38.29,.33,11.72,.73,22.81,1.21,33.23,.48,10.44,1.13,20.56,1.93,30.35,.8,9.79,1.69,19.42,2.66,28.89,.24,2.45,.6,5.05,.87,7.54l-170.71-230.31h-64.65Z"></path><path d="M2023.53,996.33c-5.31,11.09-12.79,19.68-22.44,25.78-9.64,6.09-20.91,9.14-33.77,9.14s-23.56-3.05-33.05-9.14c-9.49-6.1-16.97-14.7-22.44-25.78-5.47-11.07-8.2-24-8.2-38.77s2.73-27.13,8.2-38.05c5.47-10.91,12.94-19.51,22.44-25.77,9.49-6.27,20.51-9.39,33.05-9.39s24.13,3.13,33.77,9.39c9.65,6.25,17.13,14.85,22.44,25.77,5.3,10.92,7.96,23.6,7.96,38.05s-2.66,27.7-7.96,38.77m75.02,89.36v-254.81h-68.03v33.82c-4.93-6.77-10.51-13-17.13-18.4-7.88-6.42-17.05-11.48-27.5-15.17-10.45-3.69-21.95-5.54-34.5-5.54-22.19,0-41.97,5.71-59.34,17.1-17.38,11.4-31.12,26.98-41.26,46.72-10.14,19.75-15.19,42.47-15.19,68.16s4.98,48.5,14.95,68.4c9.98,19.91,23.48,35.64,40.54,47.21,17.04,11.55,36.18,17.34,57.41,17.34,11.9,0,23.16-1.85,33.77-5.54,10.61-3.69,20.17-8.67,28.71-14.93,7.19-5.28,13.34-11.22,18.58-17.75v33.41h68.99Z"></path><path d="M1558.98,421.39c4.66-12.84,11.5-24,20.51-33.47,9-9.48,19.46-16.86,31.36-22.16,11.9-5.29,24.92-7.94,39.08-7.94s27.26,2.65,39.33,7.94c12.06,5.3,22.44,12.69,31.12,22.16,8.68,9.47,15.51,20.63,20.51,33.47,4.98,12.85,7.47,26.97,7.47,42.39s-2.5,29.54-7.47,42.39c-4.99,12.85-11.82,24.08-20.51,33.71-8.68,9.64-19.06,17.03-31.12,22.16-12.07,5.14-25.17,7.7-39.33,7.7s-27.18-2.57-39.08-7.7c-11.91-5.14-22.36-12.52-31.36-22.16-9.01-9.63-15.85-20.87-20.51-33.71-4.67-12.85-7-26.98-7-42.39s2.33-29.54,7-42.39m-32.33,167.39c15.61,15.58,33.86,27.69,54.77,36.37,20.91,8.67,43.74,13,68.51,13s48.01-4.33,68.76-13c20.74-8.68,38.92-20.87,54.52-36.61,15.61-15.73,27.58-34.2,35.95-55.4,8.37-21.19,12.54-44.31,12.54-69.35s-4.18-48.17-12.54-69.37c-8.37-21.19-20.34-39.65-35.95-55.39-15.6-15.73-33.77-27.93-54.52-36.61-20.75-8.67-43.67-13-68.76-13s-47.6,4.33-68.51,13c-20.91,8.68-39.16,20.88-54.77,36.61-15.61,15.74-27.58,34.13-35.94,55.15-8.37,21.04-12.55,44.24-12.55,69.61s4.18,48.25,12.55,69.6c8.36,21.36,20.33,39.81,35.94,55.39"></path><path d="M1924.48,467.16c5.46-10.92,12.94-19.51,22.43-25.77,9.49-6.26,20.51-9.39,33.06-9.39s24.12,3.13,33.77,9.39c9.64,6.26,17.13,14.85,22.44,25.77,5.3,10.91,7.96,23.6,7.96,38.05s-2.66,27.7-7.96,38.78c-5.31,11.08-12.79,19.67-22.44,25.77-9.65,6.11-20.92,9.16-33.77,9.16s-23.57-3.05-33.06-9.16c-9.49-6.09-16.97-14.69-22.43-25.77-5.48-11.08-8.21-24-8.21-38.78s2.73-27.13,8.21-38.05m-20.75,153.65c17.04,11.56,36.18,17.33,57.42,17.33,11.89,0,23.15-1.84,33.77-5.53,10.61-3.69,20.19-8.67,28.71-14.94,7.18-5.27,13.33-11.22,18.57-17.75v33.41h68.99v-254.81h-68.03v33.82c-4.92-6.76-10.51-13-17.13-18.4-7.88-6.43-17.05-11.48-27.5-15.17-10.45-3.69-21.95-5.54-34.49-5.54-22.19,0-41.98,5.7-59.35,17.1-17.37,11.4-31.12,26.97-41.26,46.72-10.14,19.75-15.19,42.47-15.19,68.15s4.98,48.49,14.95,68.4c9.97,19.91,23.47,35.64,40.53,47.21"></path><polygon points="2221.49 553.59 2244.84 531.76 2325.73 633.33 2408.22 633.33 2290.2 489.34 2408.7 378.52 2318.47 378.52 2221.49 476.51 2221.49 276.9 2152.98 276.9 2152.98 633.33 2221.49 633.33 2221.49 553.59"></polygon><path d="M527.36,380.11c-8.87,1.33-16.9,5.03-25.67,4.2-1.36-.13-2.8,.91-4.24,1.29-7.51,1.96-14.56,5.62-22.79,4.95-3.1-.25-6.46,1.54-9.56,2.77-6.26,2.47-12.35,5.37-18.63,7.77-19.88,7.6-39.87,14.74-58.96,24.43-11.68,5.93-22.17,13.65-33.73,19.64-2.32,1.2-4.42,3.62-6.76,3.84-7.78,.71-12.66,6.05-18.15,10.38-9.97,7.88-19.67,16.09-29.68,23.92-3.15,2.46-7.26,3.7-10.33,6.24-7.48,6.2-14.93,12.51-21.82,19.35-13.76,13.68-28.1,26.8-40.72,41.58-9.69,11.34-19.67,22.48-27.57,35.24-.79,1.27-1.38,2.87-2.51,3.69-9.12,6.6-12.78,17.41-19.86,25.54-5.05,5.8-6.23,13.49-10.23,19.77-4.57,7.17-8.7,14.6-13.55,21.62-3.37,4.88-6.38,10.21-8.45,15.75-2.87,7.68-5.62,15.3-9.33,22.68-3.83,7.63-5.99,16.11-8.87,24.21-4.14,11.61-8.37,23.19-12.35,34.85-1.08,3.16-1.41,6.58-2.05,9.89-3.52,18-7.21,35.96-10.45,54.01-1.11,6.2-1.11,12.59-1.64,19.21,7.55,3.42,15.36,4.34,22.85,6.29,8.64,2.25,17.43,3.94,26.09,6.16,11.21,2.87,22.33,6.05,33.51,9.04,7.54,2.01,8.33,2.68,8.8,10.75,.41,7.1,.72,14.24,.44,21.34-.85,21.74-.68,43.41,1.74,65.07,1.17,10.41,1.34,20.93,2.21,31.37,.58,7.08,1.48,14.14,2.44,21.17,.4,2.93,1.59,5.75,2.02,8.68,1.09,7.36,4.45,14.17,4.11,21.99-.18,4.16,2.44,8.46,3.88,12.67,1.32,3.87,3.38,7.59,2.11,11.93-.1,.34-.12,.79,0,1.11,4.04,9.7,5.98,19.95,8.31,30.14,1.98,8.65,6.28,16.66,7.01,25.77,.25,3.16,2.39,6.23,3.95,9.2,4.84,9.25,9.07,18.71,12.93,28.45,5.36,13.49,12.37,26.32,18.7,39.42,4.7,9.75,9.46,19.47,14.14,29.23,.81,1.68,1.03,3.73,2.12,5.16,9.74,12.81,16.1,27.79,26.1,40.43,3.46,4.38,6.49,9.11,9.71,13.68,.22,.31,.45,.61,.63,.93,1.88,3.49,.59,8.09,4.65,10.99,3.27,2.34,5.75,5.78,8.57,8.75,1.03,1.08,2.5,2.02,2.98,3.32,4.32,11.7,14.38,18.95,21.75,28.27,2.3,2.91,4.81,5.49,6.58,8.94,1.82,3.54,5.17,6.3,7.93,9.32,2.27,2.49,5.36,4.49,6.87,7.35,3.8,7.18,9.78,12.02,15.63,17.29,8.87,8,16.84,16.97,25.48,25.23,7.83,7.48,16.03,14.58,24.1,21.81,1.11,.99,3.12,1.54,3.5,2.69,2.93,8.91,12.05,10.48,18.11,15.62,5.08,4.31,11.18,7.33,14.92,13.33,1.48,2.38,4.36,4.09,6.91,5.56,12,6.9,23.26,14.92,34.85,22.43,11.87,7.69,23.91,15.22,36.87,21.27,10.8,5.04,21.31,10.75,32.34,15.36,6.56,2.74,13.34,5.04,19.64,8.27,10.77,5.52,21.11,3.37,31.32-1.03,6.15-2.65,11.96-6.1,17.92-9.21,13.58-7.07,27.18-14.09,40.71-21.27,2.59-1.38,4.78-3.49,7.29-5.05,3.14-1.94,6.27-4.04,9.67-5.37,3.87-1.51,7.29-3.47,10.73-5.82,6.13-4.19,12.86-7.5,19.27-11.29,7.69-4.55,15.5-8.93,22.27-14.91,2.21-1.95,4.88-3.53,7.59-4.72,3.57-1.56,6.18-3.88,8.52-6.96,1.75-2.3,4.44-3.92,6.78-5.75,6.77-5.3,13.6-10.51,20.35-15.83,3.5-2.76,6.91-5.65,10.32-8.52,1.13-.95,2.51-1.86,3.12-3.11,2.93-6.01,8.54-9.3,13.2-13.57,4.67-4.28,9.21-8.72,13.7-13.19,2.65-2.64,4.94-5.66,7.69-8.18,3.36-3.08,6.22-6.37,8.21-10.55,1.27-2.66,3.18-5.09,5.13-7.34,7.83-9.03,15.8-17.93,23.67-26.91,1.22-1.39,2.62-2.83,3.25-4.51,2.99-7.9,8.22-14.16,13.98-20.1,5.55-5.73,8.66-13.04,11.61-20.18,2.03-4.9,3.98-9.56,7.49-13.57,3.46-3.95,6.47-8.17,7.87-13.43,.66-2.48,2.07-4.8,3.34-7.08,6.89-12.38,13.86-24.71,20.77-37.08,3.1-5.56,6.18-10.97,4.98-17.95-.45-2.65,1.25-5.75,2.25-8.54,1.12-3.14,2.49-6.2,3.86-9.24,5.71-12.65,7.56-26.49,11.94-39.48,7.59-22.49,12.13-45.56,13.88-69.03,1.35-17.97,5.41-35.44,7.4-53.25,.04-.35,.33-.67,.82-1.58,3.1-2.35,7.33-2.63,11.29-1.96,12.28,2.08,24.6,.02,36.89,.72,10.78,.61,21.63,.89,32.44-.44,2.1-.26,4.35,.62,6.95,1.04,2.15,6.84,4.13,13.13,3.27,20.62-1.19,10.34-.49,20.9-.63,31.36-.01,1.11,.22,2.55-.36,3.29-4.45,5.63-2.21,12.06-2.38,18.19-.28,10.1-.08,20.24-4.66,29.73-1.1,2.27-1.39,5.06-1.56,7.64-.61,9.37-2.86,18.38-4.86,27.52-2.73,12.5-8.39,24-10.87,36.49-.14,.73-.33,1.55-.77,2.09-6.43,7.84-6.59,18.12-10.49,26.94-4.38,9.9-8.47,19.92-12.82,29.83-1.65,3.75-4.13,7.19-5.41,11.04-3.54,10.71-11.51,19.16-14.91,29.85-2.77,8.68-8.43,15.7-12.76,23.47-3.96,7.1-7.44,14.37-13.33,20.53-5,5.23-7.51,12.82-11.31,19.25-1.49,2.52-3.06,5.41-5.37,6.96-7.67,5.14-12.61,12.28-17.05,20.16-3.1,5.51-7.09,10.58-11.13,15.47-9.99,12.07-19.81,24.34-30.86,35.44-7.11,7.14-12.71,15.7-20.86,21.83-1.44,1.08-2.32,2.9-3.48,4.36-7,8.78-15.34,16.24-23.51,23.86-1.36,1.27-2.8,2.8-4.48,3.32-6.71,2.08-11.22,7.09-16.37,11.37-6.88,5.73-14.23,10.9-21.29,16.43-3.83,3-7.46,6.25-11.22,9.33-1.72,1.41-3.46,3.61-5.37,3.81-6.81,.73-11.38,5.48-16.6,8.81-10.07,6.43-19.55,13.77-29.49,20.41-5.53,3.7-11.25,7.3-17.3,10.01-11.27,5.03-21.46,12.18-32.76,16.91-9.59,4.01-18.99,8.44-28.53,12.53-6.49,2.78-12.71,6.19-19.04,9.34-2.34,1.17-4.54,2.73-6.99,3.55-8.85,2.94-17.79,5.63-26.68,8.45-1.78,.56-3.67,1.04-5.22,2.02-3.89,2.43-7.71,3.77-12.58,3.57-4.28-.18-8.91,1.28-11.23,5.55-10.3-1.22-19.17-4.45-27.8-9.24-7.43-4.13-15.53-7.37-23.69-9.78-9.49-2.8-17.97-7.37-26.42-12.18-7.15-4.07-14.05-8.52-22.07-10.92-2.76-.82-5.24-2.82-7.62-4.58-2.44-1.81-4.82-3.31-7.96-3.82-4.12-.67-7.49-2.96-10.65-5.8-4.41-3.97-9.08-7.5-15.21-8.99-3.03-.74-5.55-3.6-8.29-5.52-5.74-4.03-10.76-9.06-18.05-10.82-2.99-.72-5.54-3.58-8.12-5.69-6.08-4.96-11.47-11.14-18.24-14.8-8.02-4.33-14.68-10.23-21.99-15.36-12.29-8.6-23.09-18.81-33.59-29.53-8.82-9.01-17.49-18.36-27.96-25.67-1.52-1.06-2.87-2.43-4.14-3.8-8.88-9.58-17.75-19.17-26.53-28.84-1.48-1.63-2.56-3.63-3.83-5.46-1.28-1.84-2.22-4.09-3.89-5.45-7.88-6.46-13.81-14.69-20.08-22.52-6.26-7.82-13.35-15.14-17.84-24.3-.49-1.01-.85-2.29-1.67-2.89-8.98-6.48-11.35-17.26-17.09-25.83-3.88-5.79-7.12-12.23-13.19-16.45-2.05-1.42-3.59-3.86-4.81-6.14-3.35-6.22-6.31-12.66-9.62-18.91-3.15-5.96-6.03-12.16-9.94-17.59-7.73-10.71-12.89-22.7-18.56-34.48-2.27-4.72-4.78-9.31-7.15-13.98-6.57-12.92-13.88-25.47-17.17-39.88-1.06-4.63-4.03-8.81-6.03-13.24-1.68-3.73-3.5-7.42-4.75-11.3-2.61-8.1-3.68-16.74-9.37-23.69-1.33-1.63-1.63-4.12-2.34-6.24-4.13-12.35-8.3-24.69-12.34-37.07-1.39-4.27-2.5-8.63-3.68-12.96-4.97-18.37-10.99-36.49-13.62-55.44-.41-2.95-.8-5.92-.97-8.9-.34-6-1.03-11.88-2.9-17.65-1.02-3.16-1.43-6.58-1.74-9.91-.94-10.03-1.69-20.08-2.53-30.11-.06-.74-.07-1.54-.34-2.22-3.65-9.23-4.44-18.83-3.88-28.63,.02-.3-.39-.62-.98-1.52-7.04-1.66-14.56-3.59-22.15-5.18-21.55-4.52-43.12-8.89-64.68-13.34-5.14-1.06-6.39-2.33-6.58-7.46-.11-2.96-.09-6.07,.67-8.9,2.65-9.87,4.03-19.73,2.32-29.97-.48-2.85-.16-6.07,.68-8.85,3.18-10.57,3.09-21.48,3.66-32.29,.73-13.91,4.09-27.31,6.72-40.87,2.34-12.03,3.01-24.42,7.97-35.87,1.23-15.5,6.1-29.91,13.23-43.6,2.11-4.06,3.07-8.09,3.25-12.8,.31-7.82,2.52-15.44,6.76-22.26,4.33-6.97,7.5-14.3,10.17-22.2,3.19-9.43,6.98-18.87,11.01-28,5.85-13.26,13.59-25.7,20.87-38.28,2.41-4.16,5.88-7.7,8.86-11.53,.92-1.18,2.11-2.25,2.69-3.59,5.69-13.11,14.41-24.33,22.29-36.06,2.27-3.38,4.61-6.76,7.29-9.82,5.41-6.19,11.07-12.15,16.6-18.23,1.01-1.11,2.21-2.21,2.74-3.54,3.22-8.04,9.68-13.17,16.15-18.26,3.87-3.04,6.5-6.86,9.36-10.82,4.74-6.54,10.98-12.02,16.81-17.72,3.2-3.13,7.26-5.43,10.21-8.75,5.53-6.23,12.15-11.04,18.63-16.1,7.65-5.98,15.55-11.73,22.61-18.36,9.66-9.07,20.6-15.95,32.37-21.74,1-.49,2.32-.93,2.79-1.78,3.37-6.11,9.37-8.24,15.3-10.61,2.06-.83,4.21-1.87,5.79-3.38,7.07-6.72,16.25-8.92,24.96-12.15,6.65-2.47,13.41-4.66,18.76-9.75,1.57-1.5,3.74-2.51,5.8-3.32,10.02-3.94,19.99-7.9,29.34-13.41,7.13-4.2,15.3-5.83,23.35-7.4,3.35-.65,6.53-1.17,9.09-3.81,2.98-3.07,6.93-4.16,11.1-4.64,8.54-.99,16.93-2.31,24.55-6.94,2.74-1.66,6.4-2.35,9.68-2.5,11.31-.5,22.18-3.03,32.96-6.19,1.08-.32,2.2-.81,3.27-.75,10.64,.63,20.41-4.17,30.87-4.83,4.77-.3,9.46-1.67,14.38-2.58,.64-2.34,1.36-4.07,1.55-5.86,.94-8.95,4.78-17.08,7.02-25.66,.56-2.16,1.59-4.22,1.93-6.4,3.19-20.48,10.84-39.41,18.6-58.5,7.75-19.08,17.43-37.16,25.86-55.86,.61-1.35,1.27-2.8,2.28-3.83,6.96-7.08,10.57-16.2,15.32-24.64,1.63-2.9,3.49-5.83,5.87-8.11,5.96-5.73,11.24-11.78,14.94-19.34,2.44-4.98,5.8-9.68,9.51-13.83,10.69-11.96,21.66-23.69,32.76-35.29,4.12-4.31,8.89-7.99,13.38-11.95,3.62-3.19,7.38-6.23,10.85-9.58,5.9-5.71,11.62-11.6,20.56-14.46,4.42,1.28,8.56,4.25,11.6,8.71,7.86,11.53,18.08,20.91,27.71,30.84,8.61,8.86,17.06,17.87,25.46,26.92,1.75,1.88,2.96,4.26,4.44,6.44-.65,4.98-3.25,8.43-6.84,11.38-4.91,4.03-9.7,8.2-14.57,12.27-1.43,1.19-2.86,2.86-4.52,3.21-6,1.27-9.33,5.84-13.33,9.72-7.22,7-13.19,15.27-21.75,20.95-2.41,1.6-4.19,4.28-5.95,6.69-3.77,5.15-7.75,10.02-12.72,14.15-2.5,2.08-4.46,5.11-5.97,8.06-6.46,12.68-14.51,24.35-22.18,36.29-5.83,9.09-10.91,18.72-14.65,28.94-.51,1.4-.55,3.42-1.54,4.13-7.23,5.2-6.68,13.76-9.17,20.93-2.55,7.37-4.26,14.86-8.51,21.75-3.91,6.33-3.13,14.32-4.24,22.58,7.39-.9,13.99,1.28,20.53-1.2,1.01-.38,2.23-.32,3.34-.26,11.53,.61,23.12,.72,34.56,2.05,14.45,1.68,28.78,4.31,43.15,6.65,2.17,.35,4.23,1.38,6.35,2.07,3.54,1.16,7.05,3.09,10.65,3.3,10.22,.58,19.87,2.83,29.04,7.41,1.25,.62,2.92,.43,4.41,.55,1.12,.09,2.34-.21,3.35,.14,5.95,2.07,11.71,5.31,17.81,6.15,6.16,.85,11.45,2.9,16.76,5.73,9.23,4.92,18.54,9.67,27.89,14.35,2.32,1.16,4.89,1.8,7.35,2.67,8.46,2.98,16.99,5.78,24.11,11.64,1.98,1.63,4.59,2.47,6.86,3.76,3.55,2.03,7.2,3.93,10.55,6.26,2.48,1.73,4.76,3.34,7.95,3.75,4.16,.55,7.38,3.1,10.64,5.77,10.97,8.98,22.2,17.64,33.34,26.41,1.17,.92,2.28,2.34,3.6,2.6,8.96,1.79,14.8,8.33,21.48,13.63,1.73,1.37,3.89,2.19,5.66,3.52,3.57,2.7,7.59,5.11,10.39,8.49,6.01,7.26,13.02,13.35,20,19.57,4.43,3.95,8.48,8.35,12.54,12.7,3.82,4.08,7.67,8.08,12.38,11.17,.93,.61,1.88,1.33,2.52,2.22,9.13,12.81,20.41,23.73,30.81,35.43,1.46,1.65,2.59,3.6,3.76,5.49,4.71,7.64,9.36,15.31,14.06,22.95,.58,.95,1.12,2.12,1.99,2.65,11.22,6.82,15.16,18.98,21.52,29.35,.97,1.58,1.35,3.54,2.39,5.05,7.42,10.84,13.44,22.39,17.96,34.74,.63,1.73,1.44,3.59,2.7,4.87,10.08,10.31,13.7,23.84,18.35,36.82,1.63,4.57,3.4,8.88,5.86,13.16,3.3,5.73,5.23,12.37,7.06,18.81,2.35,8.27,4.16,16.7,5.9,25.12,.92,4.43,2.36,8.49,4.33,12.62,3.17,6.65,7.2,13.25,6.4,21.21-.11,1.08,.17,2.27,.53,3.32,4,11.79,5.27,23.98,5.59,36.35,.07,2.59,1.01,5.15,1.25,7.76,.47,5.2,.74,10.42,1.06,15.63,.05,.74-.27,1.55-.1,2.24,2.12,8.4,1.17,17.04,2.02,25.51,.64,6.36,1.47,12.49,.36,18.92-.88,5.12-.35,10.47-.7,15.71-.62,9.28-1.43,18.55-2.23,28.69-8.89,5.5-18.39,11.25-30.14,11.41-1.11,.01-2.26,.21-3.3,.59-22.03,7.96-45.32,9.25-68.17,12.84-6.61,1.04-13.12,1.36-19.95,.62-8.05-.86-16.33,.44-24.52,.81-7.46,.34-14.8,.67-22.28-1.24-5.33-1.36-11.16-1.14-16.74-.97-8.21,.25-16.39,1.02-24.29-2.19-1.34-.54-2.95-.41-4.43-.61-10.16-1.4-20.95,.15-30.03-6.43-.5-.36-1.46-.12-2.2-.12-8.27-.02-16.15-2.07-24.08-4.17-19.51-5.16-38.46-11.95-57.18-19.39-7.95-3.16-15.51-7.27-23.86-9.41-.72-.18-1.51-.39-2.07-.84-13.04-10.36-29.5-14.12-43.52-22.72-8.9-5.45-17.14-11.86-26.15-17.08-13.99-8.09-25.23-19.81-38.48-28.94-11.64-8.02-22.66-17.1-33.17-26.57-9.11-8.21-18.72-16.09-25.62-26.56-1.6-2.43-4.42-4.02-6.42-6.23-5.48-6.07-11.64-11.6-15.07-19.34-.86-1.94-2.92-3.35-4.39-5.02-7.11-8.08-14.57-15.88-19.03-25.96-.83-1.87-3.29-2.95-4.57-4.71-5.5-7.53-11.46-14.83-16.11-22.87-8.59-14.83-17.14-29.78-24.24-45.35-5.39-11.81-12.05-23.04-15.72-35.79-3.07-10.68-8.69-20.63-13.14-30.92-.89-2.05-2.26-4.17-2.26-6.26,0-9.21-3.93-17.13-6.89-25.55-5.07-14.4-9.34-29.18-10.56-44.59-.15-1.85-.77-3.65-1.1-5.48-1.57-8.82-3.12-17.64-4.64-26.46-.13-.73-.32-1.62-.02-2.21,3.23-6.43,.1-12.37-1.27-18.46-1.39-6.19-2.09-12.36-1.82-18.84,.45-10.75,.07-21.6-2.92-32.34Zm103.28,1.48c-2.28,6.52-2.46,12.45-2.02,18.47,.71,9.71,.56,19.55,2.14,29.11,2.67,16.2,2.16,32.89,7.39,48.67,2.03,6.11,1.51,12.61,3.04,18.67,4.66,18.51,10.66,36.59,18.59,54.01,3.4,7.47,6.23,15.24,8.8,23.04,.81,2.47,1.44,4.69,3.01,6.93,3.41,4.87,6.14,10.22,9.15,15.38-.95,6.72,4.12,10.83,6.94,15.91,1.44,2.6,3.49,4.91,4.67,7.61,4.06,9.34,10.22,17.39,16.04,25.55,8.66,12.14,18.28,23.6,27.49,35.36,.92,1.18,2.19,2.26,2.64,3.61,2.41,7.17,8.26,11.45,13.41,16.27,7.08,6.63,14.62,12.8,19.55,21.41,.7,1.23,1.92,2.22,3.05,3.12,10.77,8.65,21.56,17.27,32.36,25.86,17.87,14.22,37.07,26.38,56.79,37.87,11.59,6.76,24.34,11.39,35.18,19.52,1.71,1.28,4.17,1.57,6.29,2.29,5.3,1.8,10.94,2.96,15.81,5.56,4.69,2.5,9.25,4.67,14.51,5.55,2.11,.35,4.05,1.73,6.07,2.62,2.36,1.04,4.64,2.4,7.11,3.02,6.53,1.63,13.09,3.16,19.72,4.31,11.05,1.92,22.11,4.07,33.25,5.06,8.52,.76,16.63,3.73,25.34,3.47,11.14-.34,22.14,2.89,33.46,1.22,6.17-.91,12.53-2.17,18.93-.45,1.66,.45,3.66-.47,5.52-.66,2.58-.27,5.31-1.06,7.74-.53,5.58,1.22,10.26-.37,14.97-3.32,0-1.89,.21-3.77-.04-5.6-1.27-9.3-2.19-18.59-1.23-28,.19-1.83-.09-3.76-.42-5.6-2.36-13.22-4.61-26.47-7.24-39.64-1.76-8.79-4-17.5-6.21-26.2-1.2-4.71-2.73-9.33-4.2-13.97-4.17-13.18-7.82-26.55-14.17-38.94-.84-1.64-1.97-3.44-1.96-5.16,.02-4.06-2.13-7.11-3.91-10.37-7.53-13.78-15.26-27.45-22.53-41.37-3.47-6.65-6.98-13.17-11.95-18.85-2.45-2.81-4.96-5.69-6.78-8.91-7.38-13.08-17.29-24.37-25.72-36.71-3.28-4.8-6.96-9.49-12.13-12.89-3.68-2.41-7-5.8-9.55-9.41-8.75-12.39-21.01-21.21-31.59-31.72-6.55-6.51-14.47-11.55-21.41-17.81-7.69-6.93-16.14-13.2-24.32-19.68-5.25-4.16-11.04-7.67-16.74-11.23-16.13-10.06-31.55-21.35-49.37-28.5-5.16-2.07-10.64-3.73-14.49-8.26-.68-.8-1.84-1.46-2.88-1.66-11.08-2.18-21.32-6.57-31.31-11.65-.98-.5-2.2-.5-3.24-.89-1.74-.66-3.73-1.09-5.08-2.25-3.63-3.12-8.01-3.72-12.41-4.72-10.87-2.49-21.81-4.43-32.43-8.26-7.88-2.84-16.93-2.01-24.77-5.87-13.84,.13-27.51-3.08-41.42-1.95-5.56,.45-11.27,.82-16.75,.07-6.87-.94-13.37-.24-20.65,1.44Z"></path><path d="M3265.77,1290.22c-13.19-7.86-29.76-11.8-49.7-11.8-8.37,0-16.88,1.28-25.57,3.86-8.69,2.58-17.07,6.18-25.1,10.84-8.03,4.65-15.28,10.11-21.71,16.38-5.22,5.07-9.5,10.75-13.23,16.77-3.55-8.62-7.78-16.05-12.83-22.07-7.4-8.84-16.4-15.33-27.01-19.51-10.61-4.17-22.52-6.26-35.7-6.26-8.68,0-17.37,1.37-26.06,4.09-8.68,2.73-16.97,6.51-24.85,11.32-7.87,4.82-14.71,10.59-20.5,17.34-1.59,1.85-2.88,3.92-4.3,5.89l-1.01-33.82h-66.09v254.81h68.51v-152.69c0-6.74,1.37-13.01,4.1-18.79,2.73-5.78,6.35-10.84,10.85-15.17,4.5-4.34,9.89-7.71,16.16-10.12,6.28-2.41,13.11-3.62,20.51-3.62,9,0,16.57,1.93,22.68,5.79,6.1,3.84,10.85,9.55,14.23,17.1,3.38,7.54,5.07,16.61,5.07,27.22v150.28h68.51v-152.21c0-7.06,1.29-13.49,3.87-19.26,2.57-5.78,6.19-10.84,10.85-15.17,4.66-4.34,10.14-7.71,16.41-10.12,6.27-2.41,13.1-3.62,20.51-3.62,9.64,0,17.53,1.86,23.64,5.54,6.1,3.69,10.77,9.24,13.99,16.62,3.21,7.39,4.83,16.86,4.83,28.42v149.8h68.51v-154.61c0-22.81-3.31-42.07-9.89-57.81-6.6-15.73-16.48-27.53-29.67-35.4"></path><path d="M1887.82,1347.06c10.13-6.26,21.79-9.39,34.98-9.39,8.36,0,16.48,1.45,24.37,4.34,7.87,2.88,15.2,6.83,21.95,11.8,6.75,4.98,12.38,10.52,16.88,16.62l37.64-45.28c-10.62-14.77-25.42-26.32-44.4-34.68-18.97-8.34-39.89-12.52-62.72-12.52-24.45,0-46.32,5.78-65.62,17.34-19.3,11.57-34.49,27.38-45.6,47.45-11.1,20.07-16.64,42.63-16.64,67.68s5.54,48.01,16.64,67.92c11.1,19.91,26.3,35.64,45.6,47.21,19.3,11.55,41.17,17.34,65.62,17.34,21.54,0,41.97-4.26,61.28-12.76,19.3-8.51,34.41-19.66,45.35-33.48l-37.15-45.28c-5.48,6.74-11.51,12.53-18.1,17.35-6.59,4.82-13.58,8.43-20.98,10.84-7.4,2.41-15.28,3.62-23.65,3.62-12.86,0-24.44-3.3-34.73-9.89-10.3-6.58-18.43-15.25-24.36-26-5.96-10.75-8.93-23.04-8.93-36.85s2.89-26.65,8.68-37.58c5.79-10.9,13.75-19.5,23.89-25.77"></path><path d="M3521.84,1283.24l-53.56,150.28c-2.41,7.5-4.81,14.54-7.21,21.2-.57-1.84-1.09-3.66-1.72-5.54-2.41-7.23-4.9-13.57-7.47-19.04l-62.24-146.91h-77.68l115.28,253.83-47.74,111.76h69.48l43.91-110.79,107.11-254.81h-78.16Z"></path><path d="M2812.31,1383.91h-117.16c1.27-5.55,2.96-10.74,5.23-15.41,5.14-10.6,12.62-18.62,22.43-24.09,9.82-5.46,21.8-8.18,35.95-8.18,9.65,0,18.34,1.92,26.05,5.77,7.72,3.85,14.07,9.32,19.07,16.38,4.98,7.07,7.78,14.94,8.43,23.61v1.93Zm32.09-70.09c-10.78-11.4-23.57-20.23-38.36-26.49-14.8-6.27-30.88-9.39-48.25-9.39-18.65,0-35.95,3.29-51.86,9.87-15.92,6.59-29.67,15.9-41.26,27.94-11.58,12.04-20.58,26.25-27.02,42.63-6.44,16.38-9.64,34.36-9.64,53.95,0,25.37,5.79,47.85,17.37,67.44,11.57,19.59,27.65,35,48.25,46.24,20.58,11.24,44.71,16.86,72.37,16.86,11.59,0,23.32-1.45,35.23-4.34,11.89-2.88,23.47-7.14,34.73-12.76,11.26-5.61,21.55-12.6,30.88-20.95l-32.81-45.76c-10.61,8.67-20.59,14.78-29.92,18.31-9.33,3.53-19.61,5.29-30.87,5.29-16.41,0-30.64-3.13-42.7-9.39-12.07-6.25-21.4-15.01-27.98-26.25-3.74-6.37-6.3-13.48-7.91-21.19h181.85l.48-21.19c.64-18.31-1.93-35.17-7.72-50.58-5.79-15.41-14.07-28.82-24.84-40.22"></path><path d="M1580.48,1408.96l19.28-51.06c2.56-7.39,5.3-14.94,8.2-22.64,2.89-7.7,5.62-15.65,8.2-23.84,2.55-8.13,5.03-16.09,7.42-23.9,2.38,7.56,4.88,15.43,7.54,23.65,2.89,9,5.7,17.51,8.43,25.54,2.74,8.03,5.07,14.61,7,19.74l19.67,52.51h-85.75Zm12.04-208.08l-132.21,337.17h71.41l26.74-70.81h129.59l26.53,70.81h74.3l-131.72-337.17h-64.65Z"></path><path d="M2219.2,1448.69c-5.3,11.08-12.78,19.68-22.44,25.77-9.64,6.1-20.91,9.15-33.77,9.15s-23.57-3.05-33.06-9.15c-9.48-6.09-16.97-14.7-22.43-25.77-5.48-11.08-8.21-24-8.21-38.77s2.73-27.14,8.21-38.05c5.46-10.92,12.95-19.51,22.43-25.77,9.49-6.26,20.51-9.39,33.06-9.39s24.12,3.13,33.77,9.39c9.65,6.26,17.13,14.85,22.44,25.77,5.31,10.91,7.97,23.6,7.97,38.05s-2.66,27.69-7.97,38.77m7-131.62c-4.92-6.77-10.5-13.01-17.13-18.42-7.89-6.42-17.05-11.48-27.5-15.17-10.46-3.69-21.96-5.54-34.5-5.54-22.19,0-41.97,5.72-59.34,17.1-17.38,11.4-31.13,26.97-41.26,46.72-10.14,19.75-15.2,42.47-15.2,68.16s4.98,48.49,14.96,68.39c9.97,19.91,23.48,35.64,40.52,47.21,17.05,11.55,36.2,17.35,57.42,17.35,11.9,0,23.16-1.85,33.77-5.54,10.61-3.69,20.18-8.67,28.71-14.93,7.17-5.28,13.34-11.21,18.58-17.75v33.39h69v-254.81h-68.03v33.83Z"></path><path d="M2519.27,1449.91c-5.46,11.24-13.02,20.06-22.67,26.49-9.65,6.42-20.91,9.63-33.77,9.63s-24.05-3.21-33.53-9.63c-9.49-6.43-16.88-15.25-22.19-26.49-5.3-11.24-7.96-24.41-7.96-39.5s2.65-27.86,7.96-39.25c5.31-11.4,12.7-20.24,22.19-26.5,9.49-6.26,20.67-9.39,33.53-9.39s24.12,3.13,33.77,9.39c9.65,6.26,17.21,15.1,22.67,26.5,5.48,11.4,8.21,24.48,8.21,39.25s-2.73,28.26-8.21,39.5m5.8-139.69c-3.91-4.08-8.3-7.94-13.27-11.56-8.85-6.42-18.82-11.48-29.92-15.18-11.1-3.69-22.6-5.54-34.5-5.54-22.52,0-42.54,5.78-60.06,17.34-17.54,11.56-31.37,27.3-41.5,47.21-10.14,19.91-15.2,42.55-15.2,67.92s5.06,48.89,15.2,68.64c10.13,19.75,24.04,35.33,41.73,46.72,17.69,11.4,37.63,17.1,59.83,17.1,11.9,0,23.24-1.69,34.02-5.06,10.77-3.38,20.42-8.03,28.95-13.97,6.79-4.73,12.46-9.94,17.11-15.59l1.47,29.81h64.65v-356.44h-68.51v128.61Z"></path><rect x="3310.59" y="729.25" width="68.52" height="356.44"></rect><path d="M2324.96,768.75c7.4,6.43,17.69,9.63,30.88,9.63s23.07-3.37,30.64-10.11c7.56-6.74,11.34-15.73,11.34-26.97s-3.7-20.63-11.1-27.22c-7.4-6.58-17.69-9.87-30.88-9.87s-23.09,3.45-30.64,10.35c-7.56,6.91-11.34,15.81-11.34,26.73,0,11.88,3.7,21.03,11.1,27.46"></path><path d="M2504.94,920.47c5.8-10.9,13.68-19.57,23.65-26,9.97-6.43,21.39-9.64,34.25-9.64s23.8,3.13,33.78,9.39c9.97,6.27,17.77,14.94,23.4,26.02,5.63,11.08,8.45,23.68,8.45,37.81s-2.82,26.25-8.45,37.33c-5.63,11.08-13.43,19.75-23.4,26.02-9.98,6.26-21.23,9.39-33.78,9.39s-24.28-3.13-34.25-9.39c-9.97-6.27-17.84-14.94-23.65-26.02-5.79-11.08-8.52-23.52-8.19-37.33-.33-14.13,2.41-26.65,8.19-37.58m-11.82,152.94c20.42,11.4,43.67,17.1,69.71,17.1s48.81-5.7,69.24-17.1c20.42-11.39,36.43-27.05,48-46.96,11.59-19.91,17.38-42.7,17.38-68.39s-5.79-48.41-17.38-68.16c-11.57-19.75-27.58-35.4-48-46.96-20.43-11.56-43.51-17.34-69.24-17.34s-49.29,5.78-69.71,17.34c-20.43,11.56-36.51,27.22-48.25,46.96-11.75,19.75-17.62,42.48-17.62,68.16s5.86,48.49,17.62,68.39c11.73,19.91,27.81,35.58,48.25,46.96"></path><path d="M3077.49,919.51c5.47-10.92,12.95-19.51,22.43-25.77,9.49-6.26,20.51-9.39,33.06-9.39s24.12,3.13,33.77,9.39c9.65,6.26,17.13,14.85,22.44,25.77,5.31,10.91,7.97,23.6,7.97,38.05s-2.65,27.69-7.97,38.77c-5.31,11.08-12.78,19.67-22.44,25.77-9.64,6.1-20.91,9.15-33.77,9.15s-23.58-3.05-33.06-9.15c-9.48-6.1-16.96-14.7-22.43-25.77s-8.2-24.01-8.2-38.77,2.73-27.14,8.2-38.05m-20.75,153.65c17.05,11.56,36.19,17.35,57.42,17.35,11.9,0,23.15-1.85,33.77-5.55,10.6-3.69,20.18-8.67,28.71-14.92,7.19-5.28,13.33-11.22,18.57-17.75v33.39h69v-254.81h-68.03v33.82c-4.92-6.77-10.5-13.01-17.13-18.41-7.88-6.42-17.06-11.48-27.5-15.17-10.45-3.69-21.95-5.54-34.49-5.54-22.2,0-41.98,5.71-59.35,17.1-17.37,11.4-31.12,26.98-41.26,46.73-10.13,19.75-15.19,42.47-15.19,68.16s4.98,48.49,14.95,68.39c9.97,19.91,23.48,35.64,40.53,47.21"></path><polygon points="2242.44 766.33 2173.92 766.33 2173.92 830.88 2126.16 830.88 2126.16 892.05 2173.92 892.05 2173.92 1085.69 2242.44 1085.69 2242.44 892.05 2294.55 892.05 2294.55 830.88 2242.44 830.88 2242.44 766.33"></polygon><rect x="2322.07" y="830.88" width="68.51" height="254.81"></rect><path d="M2967.27,1085.69v-156.06c0-22.8-3.29-41.99-9.89-57.57-6.6-15.57-16.41-27.22-29.43-34.92-13.03-7.71-29.2-11.56-48.49-11.56-14.15,0-27.67,2.89-40.53,8.67-12.87,5.78-23.89,13.41-33.05,22.88-2.25,2.33-4.33,4.73-6.25,7.18l-1.23-33.43h-65.62v254.81h68.52v-153.18c0-6.74,1.37-13,4.1-18.78,2.72-5.78,6.43-10.92,11.1-15.41,4.66-4.49,10.29-7.95,16.89-10.36,6.59-2.41,13.75-3.61,21.47-3.61,9.65-.64,17.77,.88,24.36,4.58,6.59,3.69,11.49,9.39,14.72,17.1,3.21,7.71,4.82,17.34,4.82,28.9v150.77h68.51Z"></path><path d="M1500.36,748.51v337.18h70.93v-216.99l162.59,216.99h65.62v-337.18h-70.92v92c0,13.81,.16,26.57,.48,38.29,.33,11.72,.73,22.81,1.21,33.23,.48,10.44,1.13,20.56,1.93,30.35,.8,9.79,1.69,19.42,2.66,28.89,.24,2.45,.6,5.05,.87,7.54l-170.71-230.31h-64.65Z"></path><path d="M2023.53,996.33c-5.31,11.09-12.79,19.68-22.44,25.78-9.64,6.09-20.91,9.14-33.77,9.14s-23.56-3.05-33.05-9.14c-9.49-6.1-16.97-14.7-22.44-25.78-5.47-11.07-8.2-24-8.2-38.77s2.73-27.13,8.2-38.05c5.47-10.91,12.94-19.51,22.44-25.77,9.49-6.27,20.51-9.39,33.05-9.39s24.13,3.13,33.77,9.39c9.65,6.25,17.13,14.85,22.44,25.77,5.3,10.92,7.96,23.6,7.96,38.05s-2.66,27.7-7.96,38.77m75.02,89.36v-254.81h-68.03v33.82c-4.93-6.77-10.51-13-17.13-18.4-7.88-6.42-17.05-11.48-27.5-15.17-10.45-3.69-21.95-5.54-34.5-5.54-22.19,0-41.97,5.71-59.34,17.1-17.38,11.4-31.12,26.98-41.26,46.72-10.14,19.75-15.19,42.47-15.19,68.16s4.98,48.5,14.95,68.4c9.98,19.91,23.48,35.64,40.54,47.21,17.04,11.55,36.18,17.34,57.41,17.34,11.9,0,23.16-1.85,33.77-5.54,10.61-3.69,20.17-8.67,28.71-14.93,7.19-5.28,13.34-11.22,18.58-17.75v33.41h68.99Z"></path><path d="M1558.98,421.39c4.66-12.84,11.5-24,20.51-33.47,9-9.48,19.46-16.86,31.36-22.16,11.9-5.29,24.92-7.94,39.08-7.94s27.26,2.65,39.33,7.94c12.06,5.3,22.44,12.69,31.12,22.16,8.68,9.47,15.51,20.63,20.51,33.47,4.98,12.85,7.47,26.97,7.47,42.39s-2.5,29.54-7.47,42.39c-4.99,12.85-11.82,24.08-20.51,33.71-8.68,9.64-19.06,17.03-31.12,22.16-12.07,5.14-25.17,7.7-39.33,7.7s-27.18-2.57-39.08-7.7c-11.91-5.14-22.36-12.52-31.36-22.16-9.01-9.63-15.85-20.87-20.51-33.71-4.67-12.85-7-26.98-7-42.39s2.33-29.54,7-42.39m-32.33,167.39c15.61,15.58,33.86,27.69,54.77,36.37,20.91,8.67,43.74,13,68.51,13s48.01-4.33,68.76-13c20.74-8.68,38.92-20.87,54.52-36.61,15.61-15.73,27.58-34.2,35.95-55.4,8.37-21.19,12.54-44.31,12.54-69.35s-4.18-48.17-12.54-69.37c-8.37-21.19-20.34-39.65-35.95-55.39-15.6-15.73-33.77-27.93-54.52-36.61-20.75-8.67-43.67-13-68.76-13s-47.6,4.33-68.51,13c-20.91,8.68-39.16,20.88-54.77,36.61-15.61,15.74-27.58,34.13-35.94,55.15-8.37,21.04-12.55,44.24-12.55,69.61s4.18,48.25,12.55,69.6c8.36,21.36,20.33,39.81,35.94,55.39"></path><path d="M1924.48,467.16c5.46-10.92,12.94-19.51,22.43-25.77,9.49-6.26,20.51-9.39,33.06-9.39s24.12,3.13,33.77,9.39c9.64,6.26,17.13,14.85,22.44,25.77,5.3,10.91,7.96,23.6,7.96,38.05s-2.66,27.7-7.96,38.78c-5.31,11.08-12.79,19.67-22.44,25.77-9.65,6.11-20.92,9.16-33.77,9.16s-23.57-3.05-33.06-9.16c-9.49-6.09-16.97-14.69-22.43-25.77-5.48-11.08-8.21-24-8.21-38.78s2.73-27.13,8.21-38.05m-20.75,153.65c17.04,11.56,36.18,17.33,57.42,17.33,11.89,0,23.15-1.84,33.77-5.53,10.61-3.69,20.19-8.67,28.71-14.94,7.18-5.27,13.33-11.22,18.57-17.75v33.41h68.99v-254.81h-68.03v33.82c-4.92-6.76-10.51-13-17.13-18.4-7.88-6.43-17.05-11.48-27.5-15.17-10.45-3.69-21.95-5.54-34.49-5.54-22.19,0-41.98,5.7-59.35,17.1-17.37,11.4-31.12,26.97-41.26,46.72-10.14,19.75-15.19,42.47-15.19,68.15s4.98,48.49,14.95,68.4c9.97,19.91,23.47,35.64,40.53,47.21"></path><polygon points="2221.49 553.59 2244.84 531.76 2325.73 633.33 2408.22 633.33 2290.2 489.34 2408.7 378.52 2318.47 378.52 2221.49 476.51 2221.49 276.9 2152.98 276.9 2152.98 633.33 2221.49 633.33 2221.49 553.59"></polygon><path d="M527.36,380.11c-8.87,1.33-16.9,5.03-25.67,4.2-1.36-.13-2.8,.91-4.24,1.29-7.51,1.96-14.56,5.62-22.79,4.95-3.1-.25-6.46,1.54-9.56,2.77-6.26,2.47-12.35,5.37-18.63,7.77-19.88,7.6-39.87,14.74-58.96,24.43-11.68,5.93-22.17,13.65-33.73,19.64-2.32,1.2-4.42,3.62-6.76,3.84-7.78,.71-12.66,6.05-18.15,10.38-9.97,7.88-19.67,16.09-29.68,23.92-3.15,2.46-7.26,3.7-10.33,6.24-7.48,6.2-14.93,12.51-21.82,19.35-13.76,13.68-28.1,26.8-40.72,41.58-9.69,11.34-19.67,22.48-27.57,35.24-.79,1.27-1.38,2.87-2.51,3.69-9.12,6.6-12.78,17.41-19.86,25.54-5.05,5.8-6.23,13.49-10.23,19.77-4.57,7.17-8.7,14.6-13.55,21.62-3.37,4.88-6.38,10.21-8.45,15.75-2.87,7.68-5.62,15.3-9.33,22.68-3.83,7.63-5.99,16.11-8.87,24.21-4.14,11.61-8.37,23.19-12.35,34.85-1.08,3.16-1.41,6.58-2.05,9.89-3.52,18-7.21,35.96-10.45,54.01-1.11,6.2-1.11,12.59-1.64,19.21,7.55,3.42,15.36,4.34,22.85,6.29,8.64,2.25,17.43,3.94,26.09,6.16,11.21,2.87,22.33,6.05,33.51,9.04,7.54,2.01,8.33,2.68,8.8,10.75,.41,7.1,.72,14.24,.44,21.34-.85,21.74-.68,43.41,1.74,65.07,1.17,10.41,1.34,20.93,2.21,31.37,.58,7.08,1.48,14.14,2.44,21.17,.4,2.93,1.59,5.75,2.02,8.68,1.09,7.36,4.45,14.17,4.11,21.99-.18,4.16,2.44,8.46,3.88,12.67,1.32,3.87,3.38,7.59,2.11,11.93-.1,.34-.12,.79,0,1.11,4.04,9.7,5.98,19.95,8.31,30.14,1.98,8.65,6.28,16.66,7.01,25.77,.25,3.16,2.39,6.23,3.95,9.2,4.84,9.25,9.07,18.71,12.93,28.45,5.36,13.49,12.37,26.32,18.7,39.42,4.7,9.75,9.46,19.47,14.14,29.23,.81,1.68,1.03,3.73,2.12,5.16,9.74,12.81,16.1,27.79,26.1,40.43,3.46,4.38,6.49,9.11,9.71,13.68,.22,.31,.45,.61,.63,.93,1.88,3.49,.59,8.09,4.65,10.99,3.27,2.34,5.75,5.78,8.57,8.75,1.03,1.08,2.5,2.02,2.98,3.32,4.32,11.7,14.38,18.95,21.75,28.27,2.3,2.91,4.81,5.49,6.58,8.94,1.82,3.54,5.17,6.3,7.93,9.32,2.27,2.49,5.36,4.49,6.87,7.35,3.8,7.18,9.78,12.02,15.63,17.29,8.87,8,16.84,16.97,25.48,25.23,7.83,7.48,16.03,14.58,24.1,21.81,1.11,.99,3.12,1.54,3.5,2.69,2.93,8.91,12.05,10.48,18.11,15.62,5.08,4.31,11.18,7.33,14.92,13.33,1.48,2.38,4.36,4.09,6.91,5.56,12,6.9,23.26,14.92,34.85,22.43,11.87,7.69,23.91,15.22,36.87,21.27,10.8,5.04,21.31,10.75,32.34,15.36,6.56,2.74,13.34,5.04,19.64,8.27,10.77,5.52,21.11,3.37,31.32-1.03,6.15-2.65,11.96-6.1,17.92-9.21,13.58-7.07,27.18-14.09,40.71-21.27,2.59-1.38,4.78-3.49,7.29-5.05,3.14-1.94,6.27-4.04,9.67-5.37,3.87-1.51,7.29-3.47,10.73-5.82,6.13-4.19,12.86-7.5,19.27-11.29,7.69-4.55,15.5-8.93,22.27-14.91,2.21-1.95,4.88-3.53,7.59-4.72,3.57-1.56,6.18-3.88,8.52-6.96,1.75-2.3,4.44-3.92,6.78-5.75,6.77-5.3,13.6-10.51,20.35-15.83,3.5-2.76,6.91-5.65,10.32-8.52,1.13-.95,2.51-1.86,3.12-3.11,2.93-6.01,8.54-9.3,13.2-13.57,4.67-4.28,9.21-8.72,13.7-13.19,2.65-2.64,4.94-5.66,7.69-8.18,3.36-3.08,6.22-6.37,8.21-10.55,1.27-2.66,3.18-5.09,5.13-7.34,7.83-9.03,15.8-17.93,23.67-26.91,1.22-1.39,2.62-2.83,3.25-4.51,2.99-7.9,8.22-14.16,13.98-20.1,5.55-5.73,8.66-13.04,11.61-20.18,2.03-4.9,3.98-9.56,7.49-13.57,3.46-3.95,6.47-8.17,7.87-13.43,.66-2.48,2.07-4.8,3.34-7.08,6.89-12.38,13.86-24.71,20.77-37.08,3.1-5.56,6.18-10.97,4.98-17.95-.45-2.65,1.25-5.75,2.25-8.54,1.12-3.14,2.49-6.2,3.86-9.24,5.71-12.65,7.56-26.49,11.94-39.48,7.59-22.49,12.13-45.56,13.88-69.03,1.35-17.97,5.41-35.44,7.4-53.25,.04-.35,.33-.67,.82-1.58,3.1-2.35,7.33-2.63,11.29-1.96,12.28,2.08,24.6,.02,36.89,.72,10.78,.61,21.63,.89,32.44-.44,2.1-.26,4.35,.62,6.95,1.04,2.15,6.84,4.13,13.13,3.27,20.62-1.19,10.34-.49,20.9-.63,31.36-.01,1.11,.22,2.55-.36,3.29-4.45,5.63-2.21,12.06-2.38,18.19-.28,10.1-.08,20.24-4.66,29.73-1.1,2.27-1.39,5.06-1.56,7.64-.61,9.37-2.86,18.38-4.86,27.52-2.73,12.5-8.39,24-10.87,36.49-.14,.73-.33,1.55-.77,2.09-6.43,7.84-6.59,18.12-10.49,26.94-4.38,9.9-8.47,19.92-12.82,29.83-1.65,3.75-4.13,7.19-5.41,11.04-3.54,10.71-11.51,19.16-14.91,29.85-2.77,8.68-8.43,15.7-12.76,23.47-3.96,7.1-7.44,14.37-13.33,20.53-5,5.23-7.51,12.82-11.31,19.25-1.49,2.52-3.06,5.41-5.37,6.96-7.67,5.14-12.61,12.28-17.05,20.16-3.1,5.51-7.09,10.58-11.13,15.47-9.99,12.07-19.81,24.34-30.86,35.44-7.11,7.14-12.71,15.7-20.86,21.83-1.44,1.08-2.32,2.9-3.48,4.36-7,8.78-15.34,16.24-23.51,23.86-1.36,1.27-2.8,2.8-4.48,3.32-6.71,2.08-11.22,7.09-16.37,11.37-6.88,5.73-14.23,10.9-21.29,16.43-3.83,3-7.46,6.25-11.22,9.33-1.72,1.41-3.46,3.61-5.37,3.81-6.81,.73-11.38,5.48-16.6,8.81-10.07,6.43-19.55,13.77-29.49,20.41-5.53,3.7-11.25,7.3-17.3,10.01-11.27,5.03-21.46,12.18-32.76,16.91-9.59,4.01-18.99,8.44-28.53,12.53-6.49,2.78-12.71,6.19-19.04,9.34-2.34,1.17-4.54,2.73-6.99,3.55-8.85,2.94-17.79,5.63-26.68,8.45-1.78,.56-3.67,1.04-5.22,2.02-3.89,2.43-7.71,3.77-12.58,3.57-4.28-.18-8.91,1.28-11.23,5.55-10.3-1.22-19.17-4.45-27.8-9.24-7.43-4.13-15.53-7.37-23.69-9.78-9.49-2.8-17.97-7.37-26.42-12.18-7.15-4.07-14.05-8.52-22.07-10.92-2.76-.82-5.24-2.82-7.62-4.58-2.44-1.81-4.82-3.31-7.96-3.82-4.12-.67-7.49-2.96-10.65-5.8-4.41-3.97-9.08-7.5-15.21-8.99-3.03-.74-5.55-3.6-8.29-5.52-5.74-4.03-10.76-9.06-18.05-10.82-2.99-.72-5.54-3.58-8.12-5.69-6.08-4.96-11.47-11.14-18.24-14.8-8.02-4.33-14.68-10.23-21.99-15.36-12.29-8.6-23.09-18.81-33.59-29.53-8.82-9.01-17.49-18.36-27.96-25.67-1.52-1.06-2.87-2.43-4.14-3.8-8.88-9.58-17.75-19.17-26.53-28.84-1.48-1.63-2.56-3.63-3.83-5.46-1.28-1.84-2.22-4.09-3.89-5.45-7.88-6.46-13.81-14.69-20.08-22.52-6.26-7.82-13.35-15.14-17.84-24.3-.49-1.01-.85-2.29-1.67-2.89-8.98-6.48-11.35-17.26-17.09-25.83-3.88-5.79-7.12-12.23-13.19-16.45-2.05-1.42-3.59-3.86-4.81-6.14-3.35-6.22-6.31-12.66-9.62-18.91-3.15-5.96-6.03-12.16-9.94-17.59-7.73-10.71-12.89-22.7-18.56-34.48-2.27-4.72-4.78-9.31-7.15-13.98-6.57-12.92-13.88-25.47-17.17-39.88-1.06-4.63-4.03-8.81-6.03-13.24-1.68-3.73-3.5-7.42-4.75-11.3-2.61-8.1-3.68-16.74-9.37-23.69-1.33-1.63-1.63-4.12-2.34-6.24-4.13-12.35-8.3-24.69-12.34-37.07-1.39-4.27-2.5-8.63-3.68-12.96-4.97-18.37-10.99-36.49-13.62-55.44-.41-2.95-.8-5.92-.97-8.9-.34-6-1.03-11.88-2.9-17.65-1.02-3.16-1.43-6.58-1.74-9.91-.94-10.03-1.69-20.08-2.53-30.11-.06-.74-.07-1.54-.34-2.22-3.65-9.23-4.44-18.83-3.88-28.63,.02-.3-.39-.62-.98-1.52-7.04-1.66-14.56-3.59-22.15-5.18-21.55-4.52-43.12-8.89-64.68-13.34-5.14-1.06-6.39-2.33-6.58-7.46-.11-2.96-.09-6.07,.67-8.9,2.65-9.87,4.03-19.73,2.32-29.97-.48-2.85-.16-6.07,.68-8.85,3.18-10.57,3.09-21.48,3.66-32.29,.73-13.91,4.09-27.31,6.72-40.87,2.34-12.03,3.01-24.42,7.97-35.87,1.23-15.5,6.1-29.91,13.23-43.6,2.11-4.06,3.07-8.09,3.25-12.8,.31-7.82,2.52-15.44,6.76-22.26,4.33-6.97,7.5-14.3,10.17-22.2,3.19-9.43,6.98-18.87,11.01-28,5.85-13.26,13.59-25.7,20.87-38.28,2.41-4.16,5.88-7.7,8.86-11.53,.92-1.18,2.11-2.25,2.69-3.59,5.69-13.11,14.41-24.33,22.29-36.06,2.27-3.38,4.61-6.76,7.29-9.82,5.41-6.19,11.07-12.15,16.6-18.23,1.01-1.11,2.21-2.21,2.74-3.54,3.22-8.04,9.68-13.17,16.15-18.26,3.87-3.04,6.5-6.86,9.36-10.82,4.74-6.54,10.98-12.02,16.81-17.72,3.2-3.13,7.26-5.43,10.21-8.75,5.53-6.23,12.15-11.04,18.63-16.1,7.65-5.98,15.55-11.73,22.61-18.36,9.66-9.07,20.6-15.95,32.37-21.74,1-.49,2.32-.93,2.79-1.78,3.37-6.11,9.37-8.24,15.3-10.61,2.06-.83,4.21-1.87,5.79-3.38,7.07-6.72,16.25-8.92,24.96-12.15,6.65-2.47,13.41-4.66,18.76-9.75,1.57-1.5,3.74-2.51,5.8-3.32,10.02-3.94,19.99-7.9,29.34-13.41,7.13-4.2,15.3-5.83,23.35-7.4,3.35-.65,6.53-1.17,9.09-3.81,2.98-3.07,6.93-4.16,11.1-4.64,8.54-.99,16.93-2.31,24.55-6.94,2.74-1.66,6.4-2.35,9.68-2.5,11.31-.5,22.18-3.03,32.96-6.19,1.08-.32,2.2-.81,3.27-.75,10.64,.63,20.41-4.17,30.87-4.83,4.77-.3,9.46-1.67,14.38-2.58,.64-2.34,1.36-4.07,1.55-5.86,.94-8.95,4.78-17.08,7.02-25.66,.56-2.16,1.59-4.22,1.93-6.4,3.19-20.48,10.84-39.41,18.6-58.5,7.75-19.08,17.43-37.16,25.86-55.86,.61-1.35,1.27-2.8,2.28-3.83,6.96-7.08,10.57-16.2,15.32-24.64,1.63-2.9,3.49-5.83,5.87-8.11,5.96-5.73,11.24-11.78,14.94-19.34,2.44-4.98,5.8-9.68,9.51-13.83,10.69-11.96,21.66-23.69,32.76-35.29,4.12-4.31,8.89-7.99,13.38-11.95,3.62-3.19,7.38-6.23,10.85-9.58,5.9-5.71,11.62-11.6,20.56-14.46,4.42,1.28,8.56,4.25,11.6,8.71,7.86,11.53,18.08,20.91,27.71,30.84,8.61,8.86,17.06,17.87,25.46,26.92,1.75,1.88,2.96,4.26,4.44,6.44-.65,4.98-3.25,8.43-6.84,11.38-4.91,4.03-9.7,8.2-14.57,12.27-1.43,1.19-2.86,2.86-4.52,3.21-6,1.27-9.33,5.84-13.33,9.72-7.22,7-13.19,15.27-21.75,20.95-2.41,1.6-4.19,4.28-5.95,6.69-3.77,5.15-7.75,10.02-12.72,14.15-2.5,2.08-4.46,5.11-5.97,8.06-6.46,12.68-14.51,24.35-22.18,36.29-5.83,9.09-10.91,18.72-14.65,28.94-.51,1.4-.55,3.42-1.54,4.13-7.23,5.2-6.68,13.76-9.17,20.93-2.55,7.37-4.26,14.86-8.51,21.75-3.91,6.33-3.13,14.32-4.24,22.58,7.39-.9,13.99,1.28,20.53-1.2,1.01-.38,2.23-.32,3.34-.26,11.53,.61,23.12,.72,34.56,2.05,14.45,1.68,28.78,4.31,43.15,6.65,2.17,.35,4.23,1.38,6.35,2.07,3.54,1.16,7.05,3.09,10.65,3.3,10.22,.58,19.87,2.83,29.04,7.41,1.25,.62,2.92,.43,4.41,.55,1.12,.09,2.34-.21,3.35,.14,5.95,2.07,11.71,5.31,17.81,6.15,6.16,.85,11.45,2.9,16.76,5.73,9.23,4.92,18.54,9.67,27.89,14.35,2.32,1.16,4.89,1.8,7.35,2.67,8.46,2.98,16.99,5.78,24.11,11.64,1.98,1.63,4.59,2.47,6.86,3.76,3.55,2.03,7.2,3.93,10.55,6.26,2.48,1.73,4.76,3.34,7.95,3.75,4.16,.55,7.38,3.1,10.64,5.77,10.97,8.98,22.2,17.64,33.34,26.41,1.17,.92,2.28,2.34,3.6,2.6,8.96,1.79,14.8,8.33,21.48,13.63,1.73,1.37,3.89,2.19,5.66,3.52,3.57,2.7,7.59,5.11,10.39,8.49,6.01,7.26,13.02,13.35,20,19.57,4.43,3.95,8.48,8.35,12.54,12.7,3.82,4.08,7.67,8.08,12.38,11.17,.93,.61,1.88,1.33,2.52,2.22,9.13,12.81,20.41,23.73,30.81,35.43,1.46,1.65,2.59,3.6,3.76,5.49,4.71,7.64,9.36,15.31,14.06,22.95,.58,.95,1.12,2.12,1.99,2.65,11.22,6.82,15.16,18.98,21.52,29.35,.97,1.58,1.35,3.54,2.39,5.05,7.42,10.84,13.44,22.39,17.96,34.74,.63,1.73,1.44,3.59,2.7,4.87,10.08,10.31,13.7,23.84,18.35,36.82,1.63,4.57,3.4,8.88,5.86,13.16,3.3,5.73,5.23,12.37,7.06,18.81,2.35,8.27,4.16,16.7,5.9,25.12,.92,4.43,2.36,8.49,4.33,12.62,3.17,6.65,7.2,13.25,6.4,21.21-.11,1.08,.17,2.27,.53,3.32,4,11.79,5.27,23.98,5.59,36.35,.07,2.59,1.01,5.15,1.25,7.76,.47,5.2,.74,10.42,1.06,15.63,.05,.74-.27,1.55-.1,2.24,2.12,8.4,1.17,17.04,2.02,25.51,.64,6.36,1.47,12.49,.36,18.92-.88,5.12-.35,10.47-.7,15.71-.62,9.28-1.43,18.55-2.23,28.69-8.89,5.5-18.39,11.25-30.14,11.41-1.11,.01-2.26,.21-3.3,.59-22.03,7.96-45.32,9.25-68.17,12.84-6.61,1.04-13.12,1.36-19.95,.62-8.05-.86-16.33,.44-24.52,.81-7.46,.34-14.8,.67-22.28-1.24-5.33-1.36-11.16-1.14-16.74-.97-8.21,.25-16.39,1.02-24.29-2.19-1.34-.54-2.95-.41-4.43-.61-10.16-1.4-20.95,.15-30.03-6.43-.5-.36-1.46-.12-2.2-.12-8.27-.02-16.15-2.07-24.08-4.17-19.51-5.16-38.46-11.95-57.18-19.39-7.95-3.16-15.51-7.27-23.86-9.41-.72-.18-1.51-.39-2.07-.84-13.04-10.36-29.5-14.12-43.52-22.72-8.9-5.45-17.14-11.86-26.15-17.08-13.99-8.09-25.23-19.81-38.48-28.94-11.64-8.02-22.66-17.1-33.17-26.57-9.11-8.21-18.72-16.09-25.62-26.56-1.6-2.43-4.42-4.02-6.42-6.23-5.48-6.07-11.64-11.6-15.07-19.34-.86-1.94-2.92-3.35-4.39-5.02-7.11-8.08-14.57-15.88-19.03-25.96-.83-1.87-3.29-2.95-4.57-4.71-5.5-7.53-11.46-14.83-16.11-22.87-8.59-14.83-17.14-29.78-24.24-45.35-5.39-11.81-12.05-23.04-15.72-35.79-3.07-10.68-8.69-20.63-13.14-30.92-.89-2.05-2.26-4.17-2.26-6.26,0-9.21-3.93-17.13-6.89-25.55-5.07-14.4-9.34-29.18-10.56-44.59-.15-1.85-.77-3.65-1.1-5.48-1.57-8.82-3.12-17.64-4.64-26.46-.13-.73-.32-1.62-.02-2.21,3.23-6.43,.1-12.37-1.27-18.46-1.39-6.19-2.09-12.36-1.82-18.84,.45-10.75,.07-21.6-2.92-32.34Zm103.28,1.48c-2.28,6.52-2.46,12.45-2.02,18.47,.71,9.71,.56,19.55,2.14,29.11,2.67,16.2,2.16,32.89,7.39,48.67,2.03,6.11,1.51,12.61,3.04,18.67,4.66,18.51,10.66,36.59,18.59,54.01,3.4,7.47,6.23,15.24,8.8,23.04,.81,2.47,1.44,4.69,3.01,6.93,3.41,4.87,6.14,10.22,9.15,15.38-.95,6.72,4.12,10.83,6.94,15.91,1.44,2.6,3.49,4.91,4.67,7.61,4.06,9.34,10.22,17.39,16.04,25.55,8.66,12.14,18.28,23.6,27.49,35.36,.92,1.18,2.19,2.26,2.64,3.61,2.41,7.17,8.26,11.45,13.41,16.27,7.08,6.63,14.62,12.8,19.55,21.41,.7,1.23,1.92,2.22,3.05,3.12,10.77,8.65,21.56,17.27,32.36,25.86,17.87,14.22,37.07,26.38,56.79,37.87,11.59,6.76,24.34,11.39,35.18,19.52,1.71,1.28,4.17,1.57,6.29,2.29,5.3,1.8,10.94,2.96,15.81,5.56,4.69,2.5,9.25,4.67,14.51,5.55,2.11,.35,4.05,1.73,6.07,2.62,2.36,1.04,4.64,2.4,7.11,3.02,6.53,1.63,13.09,3.16,19.72,4.31,11.05,1.92,22.11,4.07,33.25,5.06,8.52,.76,16.63,3.73,25.34,3.47,11.14-.34,22.14,2.89,33.46,1.22,6.17-.91,12.53-2.17,18.93-.45,1.66,.45,3.66-.47,5.52-.66,2.58-.27,5.31-1.06,7.74-.53,5.58,1.22,10.26-.37,14.97-3.32,0-1.89,.21-3.77-.04-5.6-1.27-9.3-2.19-18.59-1.23-28,.19-1.83-.09-3.76-.42-5.6-2.36-13.22-4.61-26.47-7.24-39.64-1.76-8.79-4-17.5-6.21-26.2-1.2-4.71-2.73-9.33-4.2-13.97-4.17-13.18-7.82-26.55-14.17-38.94-.84-1.64-1.97-3.44-1.96-5.16,.02-4.06-2.13-7.11-3.91-10.37-7.53-13.78-15.26-27.45-22.53-41.37-3.47-6.65-6.98-13.17-11.95-18.85-2.45-2.81-4.96-5.69-6.78-8.91-7.38-13.08-17.29-24.37-25.72-36.71-3.28-4.8-6.96-9.49-12.13-12.89-3.68-2.41-7-5.8-9.55-9.41-8.75-12.39-21.01-21.21-31.59-31.72-6.55-6.51-14.47-11.55-21.41-17.81-7.69-6.93-16.14-13.2-24.32-19.68-5.25-4.16-11.04-7.67-16.74-11.23-16.13-10.06-31.55-21.35-49.37-28.5-5.16-2.07-10.64-3.73-14.49-8.26-.68-.8-1.84-1.46-2.88-1.66-11.08-2.18-21.32-6.57-31.31-11.65-.98-.5-2.2-.5-3.24-.89-1.74-.66-3.73-1.09-5.08-2.25-3.63-3.12-8.01-3.72-12.41-4.72-10.87-2.49-21.81-4.43-32.43-8.26-7.88-2.84-16.93-2.01-24.77-5.87-13.84,.13-27.51-3.08-41.42-1.95-5.56,.45-11.27,.82-16.75,.07-6.87-.94-13.37-.24-20.65,1.44Z"></path></svg>