<svg xmlns="http://www.w3.org/2000/svg" width="72" height="54" fill="none"><g clip-path="url(#a)"><path fill="#222" fill-rule="evenodd" d="m71.877 6.127-.113-1.244h-.113v-.226h-.114l-.113-.678h-.114v-.227h-.113c-.037-.096.167-.19 0-.452l-.907-.792c.104-.363-.444-.316-.34-.679l-.227-.226c-.363.104-.317-.443-.68-.34-.038-.344-.259-.4-.567-.452V.698c-.47.075-.365-.343-.907-.226V.359l-.794-.112V.132l-.226.113c-.118-.418-.68-.159-1.02-.226v.113l-.34-.113v.113h-.794v.115L63.26.36v.113h-.34v.114h-.227V.7h-.34v.113h-.227v.113c-.662-.112-.552.27-1.134.34-.144.358-.443.402-.793.452-.063.286-.369.445-.68.565v.227c-.415.144-.67.717-1.02 1.018-.38-.102-.327.188-.567.226.064.259-.16.327-.34.452.087.311-.315.254-.228.566-.298.143-.343.403-.68.452.073.305-.264.39-.453.566.1.416-.303.551-.567.791-.065.184-.138.263-.34.227-.189.357-.349.66-.794.678v.111c-.338-.032-.328.343-.793.34-.075.342-.411.2-.68.226v.113h-.225v.113c-.4.011-.361-.087-.68.226-.11-.704-.49-.65-.68-1.244-1.6-.082-2.33-1.336-3.855-1.244v-.113c-.39.028-.23-.344-.794-.226.027-.314-.707-.138-.68-.453l-1.02-.226v-.113h-.227v-.113h-.34V4.77h-.114c.017.046-.258.269-.226 0h-.227v-.113c-.226.016-.39.024-.454-.226-.34.031-.326-.342-.794-.34V3.98l-1.02-.113v-.114h-.34V3.64h-.227v-.113l-.57-.113v-.114h-.226v-.112h-.566c-.007-.25-.483-.218-.68-.34-.645.408-1.651.467-1.927 1.245-.525.184-1.096.245-1.36.792-.567.002-.618.396-1.135.452.043.187-.217.157-.34.226-.063.181-.14.265-.34.226-.272.441-.624.692-1.133.792-.22.204-.333.633-.68.566-.065.184-.139.263-.341.226-.066.283-.327.276-.567.34-.065.184-.138.262-.34.226v.113c-.435-.146-.414.408-.793.34v.112c-.226-.015-.391-.024-.454.227-.2-.037-.276.046-.34.226-.402.056-.346.394-.794.452.106.371-.328.334-.566.453-.066.282-.328.275-.567.34-.065.183-.138.262-.34.226v.11h-.227v.113c-.225-.017-.392-.024-.453.226-.307-.072-.392.264-.567.453-.2-.037-.276.046-.34.226-.2-.037-.277.046-.34.226-.226-.016-.39-.024-.454.226l-.68.23c-.065.183-.138.262-.34.226-.145.36-.444.402-.794.453.043.183-.218.157-.34.226-.127.443-.032.148-.34.339v.113h-.227v.113c-.2-.038-.276.045-.34.226-.2-.038-.276.046-.34.226-.557.122-.897.437-1.247.905-.2-.036-.276.046-.34.226-.227-.015-.39-.025-.454.226-.195.122-.675.092-.68.34h-.227c.043.186-.217.157-.34.226.123.355-.358.193-.34.452h-.227v.112c-.2-.037-.276.046-.34.226l-.68.226c-.253.43-.472.797-1.02.792-.065.184-.139.263-.34.227v.113c-.226-.016-.392-.024-.454.226-.348-.067-.46.362-.68.566-.396-.1-.398.326-.794.226v.113c-.306-.072-.391.264-.567.452-.312-.087-.254.314-.567.227-.127.142-.242.27-.453.226v.113h-.227v.113c-.312-.088-.255.314-.567.226-.286.276-.444.781-.907.68v.112h-.227v.113c-.199-.038-.276.046-.34.226-.306-.072-.39.265-.566.453-.2-.037-.276.046-.34.226-.444.081-.65.322-1.02.453-.065.183-.139.262-.341.225-.332.64-.67.472-1.247.68-.066.183-.138.261-.34.226-.003.237-.214.258-.454.339-.101.685-.81.413-.906.792h-.34v.113h-.228v.113c-.403-.034-.368.47-.906.452.003.243-.433.138-.454.453-.387-.054-.532.454-.793.679-.618.104-.875.539-1.361.905.033.592.035 1.128.567 1.357-.088.311.314.254.227.566.48.171.313.735.793.904.132.285.105.699.454.79.069.123.04.384.227.34.075.263.015.604.34.678.046.34.306.495.567.68-.016.225-.025.388.226.452l.227.678c.184.065.263.138.227.34.238.003.258.213.34.452.538.16.134.092.34.453.25.063.242.227.227.452.184.065.263.138.227.34h.113c-.065.258.16.327.34.452-.038.198.046.276.227.34-.116.372.279.357.226.678.305.135.411.36.454.679.181.063.264.137.227.34.141.125.272.241.226.451.26.184.521.34.567.679.323.075.265.413.34.679.181.126.404.192.34.452.233.062.283.241.34.453.185-.043.158.218.227.34.264-.062.272.132.34.338h-.113v.113h.113c.088.236.1.451.34.453.057.21.108.392.34.452-.033.444.49.299.34.905.36.145.404.443.454.792.305.138.41.36.453.679.283.066.276.327.34.566.184.064.263.137.227.339.26-.018.097.459.453.339.114.44 1.074 1.921 1.474 2.036.134.49.327 1.023.793 1.244-.043.334.018.54.34.679.008.643.363.537.34.905.185.064.264.138.227.34.19.175.526.26.454.565.184.064.263.137.226.34.182.126.405.192.34.452.33.045.348.604.794.452v-.113c.245-.063.342.148.454.113.063-.25.227-.242.454-.226v-.113c.305.072.39-.265.566-.453.348.068.46-.362.68-.565.631-.06.548-.564 1.247-.566v-.113c.26.065.328-.159.454-.34.205-.066.403-.075.34-.339.777-.096.755-.643 1.247-.565-.042-.184.217-.157.34-.227.095-.347.51-.321.794-.452.064-.183.138-.263.34-.226.126-.18.194-.404.453-.34.305-.337.495-.804 1.021-.678.037-.28.379-.355.68-.453v-.226c.669-.16 1.353-.551 1.7-1.131.206-.067.404-.076.34-.34.424-.088.82-.23 1.134-.452.176-.188.261-.524.567-.452.205-.377.481-.54.907-.566.096-.371.546-.338.567-.565h.34v-.113c.335.032.333-.345.793-.34.21-.423.567-.316.794-.792.74.004.572-.475 1.02-.452.127-.18.194-.403.454-.34.066-.282.328-.275.566-.339.03-.284.383-.358.68-.452.137-.753 1.085-.65 1.361-1.245l.34.114c.064-.184.138-.263.34-.227.004-.235.214-.262.454-.339v-.226c.411-.114.455-.357.907-.453.117-.707.645-.108.794-.565.306.072.391-.264.566-.452.2.037.277-.046.34-.227.306.072.392-.264.567-.452.205-.067.403-.076.34-.34.123-.069.384-.04.34-.226h.34v-.113h.227v-.113h.227v-.113c.322.054.308-.343.68-.226.176-.189.261-.525.568-.453.22-.203.332-.633.68-.565.064-.184.138-.263.34-.227.126-.18.193-.402.453-.339v-.113c.35-.05.65-.092.794-.453.306.072.39-.264.566-.452.638-.006.545-.363.908-.34v-.11c.305.071.39-.265.567-.453.26.065.327-.159.453-.34.306.073.391-.263.567-.452.322.053.306-.342.68-.226-.004-.243.434-.138.453-.453.426-.024.704-.19.907-.565.452-.12.835-.282 1.02-.678.26.064.328-.16.454-.34.2.037.276-.046.34-.226.373-.13.576-.371 1.02-.453.176-.188.261-.524.567-.452.176-.36.474-.528.907-.566v-.113h.114c.159-1.213.291-2.686.227-4.072h.113c.053-1.282.134-2.562.113-3.846.092-.31.368-.95.227-1.47h-.113v-.792h.113l.113-1.131h-.113c.276-1.24.126-.559-.227-1.697.267-.15.485-.335.567-.678h.229v-.34h.227v-.226c.605-.09.41-.701.793-.792-.088-.311.315-.254.227-.565.165-.23 1.27-.805 1.587-.905.487-.154 1.191.142 1.473.226l1.134.113v.113h.34v.114h.794v-.113h.113v.114h.453v.113h.907v.113c.513.092 2.49-.088 2.608-.452h.34v-.113c.2.037.276-.046.34-.227l.794-.113.567-.679c.205-.066.402-.076.34-.339.556-.076.305-.608.68-.679-.087-.311.314-.254.227-.565h.113l.114-.905h.113v-.454h.114V7.71h.113V6.58h.113v-.226h.113c.05-.194-.106-.196-.113-.227ZM55.21 16.873h-.113c.022.643.079 1.282.113 1.923h-.227c-.012 1.44-.025 2.742-.34 3.846-.128.452.155.948.114 1.244h-.113c0 .148.184.282.113.565h-.113v1.358h-.114l-.113 1.584c-.081.033-.395.081-.454.113-.064.183-.138.262-.34.226v.113c-.348-.067-.46.362-.68.566-.741-.004-.572.474-1.02.452v.113c-.74.012-.588.396-1.02.566v.226c-.535.113-1.125.478-1.474.791-.176.189-.261.525-.567.453-.066.282-.328.276-.567.34-.064.183-.138.262-.34.225-.065.184-.138.263-.34.227v.113c-.226-.016-.39-.025-.454.226-.184.152-.544.39-.793.453v.226c-.477.097-1.357.57-1.474 1.018-.896.175-1.194 1.036-2.04 1.131-.153.381-.84.436-1.02.905h-.227v.226c-.44.088-.599.505-1.02.453v.113c-.517-.146-.505.597-1.02.452v.113c-.2-.037-.277.046-.341.227-.342-.085-.322.34-.454.565-.316.118-.696.161-.907.452-.341-.03-.322.342-.793.34v.113c-.497-.11-.62.49-.907.792-.443.08-.65.321-1.02.452-.134.255-.263.399-.567.34v.11h-.227v.114c-.2-.037-.276.046-.34.226-.26-.064-.328.159-.454.34-.34-.032-.326.342-.793.339-.24.263-.377.666-.794.565v.117c-.2-.038-.276.045-.34.226-.389.028-.598.248-.794.566-.205.066-.402.076-.34.339-.394.082-.552.256-.906.339-.174.646-.667.495-1.134.792.042.184-.217.157-.34.226-.064.181-.139.264-.34.226-.493.847-.716.335-.907.792-.427-.077-.443.338-.907.34-.3.346-.516.768-1.02.791-.067.184-.139.262-.341.227v.113c-.348-.068-.46.362-.68.565-.372-.021-.261.331-.907.34-.066.282-.328.275-.567.339-.216.44-.766.763-1.247.905v.34c-.46.02-.562.43-1.02.452-.075.323-.415.263-.68.339-.178.214-.227.643-.568.566-.128.142-.24.27-.453.225v.114h-.227v.113c-.363-.104-.316.443-.68.34v.112h-.227c.043.184-.217.157-.34.226-.29-.253-.272-.454-.34-.791-.592-.261-.38-.772-.907-1.018-.132-.339-.128-.757-.567-.792-.071-.391-.451-.47-.453-.905-.284-.066-.277-.327-.34-.565h-.114v-.227h-.113c.046-.214-.086-.325-.227-.452.038-.2-.046-.276-.227-.34.065-.258-.159-.326-.34-.452-.132-.284-.105-.697-.453-.792-.065-.238-.057-.499-.34-.565.019-.529-.49-.509-.454-.905-.23-.02-.184-.46-.567-.566-.279-.416-.056-.612-.68-.791-.125-.373-.578-1.865-1.02-1.697-.08-.433-.507-.601-.454-1.018-.348-.095-.322-.508-.453-.792-.181-.126-.404-.193-.34-.453h-.114v-.226H8.39c.015-.225.024-.39-.227-.452-.21-.3.12-.2-.34-.34-.07-.122-.04-.382-.227-.339.053-.321-.344-.306-.227-.679h-.113v-.226c-.185.043-.158-.217-.227-.34-.443-.129-.148-.028-.34-.338h-.113v-.227h-.114v-.226H6.35c.056-.315-.336-.33-.34-.678-.204-.22-.635-.333-.567-.68h-.114v-.225h-.113c.016-.225.024-.39-.226-.453l-.227-.679c-.185-.064-.264-.138-.227-.339-.205-.128-.531-.149-.453-.452h-.114v-.227h-.113c.1-.413-.304-.551-.567-.791.037-.199-.046-.276-.227-.34-.043-.318-.148-.544-.454-.678.088-.364-.196-.49-.453-.68-.224-.333-.092-.642-.453-.904-.064-.263.138-.272.34-.34.063-.183.14-.262.34-.225.072-.386.495-.068.567-.453.426.077.442-.338.907-.34.064-.183.138-.26.34-.226.065-.183.138-.26.34-.226.003-.237.214-.259.454-.339.128-.463.049-.132.34-.34.064-.183.137-.262.34-.226v-.113l.34.113c.063-.181.138-.263.34-.226.064-.184.138-.263.34-.226.028-.262.289-.359.567-.453.194-.629.142-.12.567-.339.061-.18.143-.265.34-.226.105-.313.454-.199.566-.566.26.065.329-.159.454-.34.2.038.276-.045.34-.225.594-.176 1.02-.403 1.36-.905.29-.087.707.018.794-.34.313.088.255-.313.567-.226.12-.39.562-.33.68-.679.228.016.388.027.454-.226.202.036.274-.042.34-.226.364.104.317-.443.68-.339.192-.257.313-.538.68-.453v-.112h.227v-.113c.353.061.522-.193.68-.453.348.068.46-.361.68-.565.869 0 .656-.468 1.36-.566.137-.304.361-.409.681-.452.065-.184.139-.262.34-.226v-.113c.4.035.378-.472.907-.453.106-.313.454-.198.567-.565.338.032.33-.343.794-.34.066-.282.328-.275.566-.339.067-.282.328-.275.568-.34.066-.32.387-.13.453-.452.312.088.254-.314.567-.226V14.5c.2.037.276-.046.34-.226.239-.065.5-.057.567-.34l.68-.227c.061-.233.242-.283.454-.34.261-.223.406-.735.793-.679v-.113c.2.037.276-.046.34-.226l.68-.226c.115-.368.46-.253.567-.566.312.087.255-.314.567-.226-.017-.26.463-.096.34-.453.49-.076.69-.489 1.134-.452v-.113h.227V10.2c.225.016.39.024.453-.226.123-.07.383-.04.34-.227.205-.066.403-.076.34-.34.237-.087.452-.098.454-.338.451-.119.46-.451 1.02-.453.216-.433.561-.534 1.02-.566.038-.279.379-.354.68-.452-.122-.356.358-.193.341-.452h.34v-.114c.35-.05.65-.092.793-.452.307.072.392-.265.567-.453.26.064.328-.158.454-.339.26.064.327-.159.453-.34.26.065.328-.158.454-.339.294-.208.477.184.453-.113h.227c-.017-.26.46-.096.34-.452h.34v-.226c.603.096.51.444 1.248.452v.113l.793.113v.113c.313-.087.255.314.567.227v.113l1.927.452v.113c.39-.028.23.343.794.227-.027.313.707.137.68.452l1.134.226c.064.184.138.263.34.226v.113l.794.113v.113l.453.113v.114h.34v.113h.34v.113h.34v.113h.34v.113c.404-.28.614.244 1.134.226v.453l-.907.113v.112h-.227v.113c-.247.006-.5-.077-.567.226l-.34-.113c-.126.18-.194.404-.453.34l-.68.791-.227-.113c-.158.431-.521.34-.907.34v.116h-.227v.113l-1.02.226c.043.184-.218.157-.34.226-.064.184-.139.263-.34.226.013.225-.315.3-.454.453.068.347-.363.46-.566.679-.136.689-.435.43-.454 1.357h-.114l-.113.452h-.113v.566c-.004.012-.174.086-.113.34h.113v.565h.113v.452h.113c-.103.586.33.433.227 1.018h.114v.114h-.114v.113h.114c-.038.198.046.275.226.34-.067.346.363.458.567.678-.046.21.084.325.227.452.363-.104.317.443.68.34.176.188.26.524.567.452v.113h.227v.113c.787-.193 2.111.88 2.946.226.247-.006.501.077.567-.226.239-.065.501-.057.567-.34l.794-.113c.064-.183.138-.263.34-.226.142-.127.272-.241.227-.452.181-.126.404-.193.34-.453.184-.064.262-.137.226-.339h.114v-.34c.186.043.157-.216.227-.338.476-.216.203-1.014.34-1.47h.113c.267-.723-.394-1.332-.113-1.81h-.114v-.227h-.113v-.226h-.113c.087-.312-.315-.254-.227-.565h-.114v-.453c-.262-.037-.343-.29-.453-.566-.309-.078-.256-.152-.567-.226-.187-.7-1.054-.564-1.473-1.018-.227-.068-.098.016-.227-.113.383-.096.66-.219.794-.565.268-.15.782-.018 1.02-.226 1.144-.014.93.26 1.36.904.284.066.277.328.34.566.435.215.536.56.568 1.018.18.126.403.193.34.452.142.129.27.24.226.453h.114c-.065.259.159.327.34.452.069.123.04.383.226.34-.032.337.344.328.34.791.181.127.405.194.34.453.284.066.277.327.341.566h.113v.789Zm-4.42-2.376v.34h.114v1.244c.006.028.15.036.113.226h-.113v.34h-.114v.225h-.113l-.113.68c-.264.033-.343.291-.454.565-.24.079-.451.102-.453.34h-.227c.004.264-.199.126-.227.452l-.68.113v.113h-.907v.113h-.113v-.113h-1.02v-.113h-.227c-.092-.305-.73-.282-1.02-.453-.076-.337-.563-.52-.794-.792.037-.2-.046-.275-.227-.34-.043-.318-.148-.542-.453-.678l-.114-1.357s.144.012.114-.226h-.114c-.026-.21.114-.226.114-.226-.239-.453.125-.904.226-1.358.182-.063.265-.138.227-.34.246-.128.408-.283.453-.565.464 0 .483-.416.908-.339.075-.324.414-.264.68-.34-.092.48-.151.88 0 1.358-.152-.039-.163.124-.227.226-.305-.078-.325.248-.454.453-.561.049-.338.718-.453 1.131-.18-.1-.43.592-.113.565.039.386.046.633.34.679-.06.303.086.433.34.565.067.205.077.403.34.34v.226c.38.088.435.253.794.34v.113c.21-.165.855.106.907-.227.225.016.39.025.453-.226.303.06.434-.085.567-.34.205-.066.403-.075.34-.339.181-.125.404-.193.34-.452.307-.013.046-.212.34-.34l-.226-1.469c-.45-.06.175-.64-.907-.905v-.226c-.511-.068-.33-.197-.907-.226-.259-.322-.057-.973 0-1.244 1.82.177.914.487 2.153.905.17.713.83.826.794 1.583h.113Zm-4.42.905c.101.479.35.607.454 1.018l-.453-.113c-.069-.226.015-.097-.114-.226v-.679h.114Zm2.041-.226v.792h-.113v.113c-.158-.058-.348-.08-.454-.226-.006-.16.114.046.114-.113-.023-.404-.291-.971-.227-1.358.238.197.191.357.567.453v.34h.113Zm22.107-9.162h-.113v1.697c-.25.006-.217.482-.34.678-.304.092-.282.728-.453 1.019-.338.131-.456.6-.794.565-.23.487-.644.523-1.134.566v.113h-.34v.115h-.34v.113c-.342.067-.903-.192-1.02.226l-.567-.113v.113l-1.814-.113v-.113h-.227v-.113l-1.703-.23v-.113h-.34v-.114h-.34v-.113l-1.474.113v.114h-.34v.113h-.227v.113c-.2-.038-.276.046-.34.226-.4-.079-.422.493-.794.566.046.21-.084.325-.226.452h-.227c-.143.127-.272.242-.227.453-.339.304-.807.493-.68 1.018-.408.11-.476.379-.794.565-.34-.387-.64-1.596-1.134-1.583-.082-.394-.256-.551-.34-.905-.612-.165-.302-.368-.566-.792-.184-.064-.264-.138-.227-.34h-.114c.07-.3-.145-.27-.34-.452l1.02-.226v-.227c.45-.039.907-.183 1.134-.452.309-.086.258-.027.34-.339.272-.105.541-.187.568-.452.363.103.316-.444.68-.34V7.71c.386.076.502-.349.453-.679.743-.11.67-1.013 1.134-1.244V5.56c.266.014.234-.455.567-.34v-.226c.478-.089.504-.394.567-.792.341-.137.711-.36.793-.678.312.087.254-.314.567-.227v-.11h.227c-.018-.26.46-.096.34-.452l1.247-.453c.066-.282.328-.275.567-.339V1.83h.907v-.113c.2.037.276-.046.34-.226l1.247-.113v.113c.16.005-.046-.087.113-.113h.68v.113h.34v.113h.34v.113h.454v.113h.228v.114c.312-.088.254.313.567.226.142.126.271.241.226.452.323.043.269.4.68.453.166.585.401.326.567 1.13.488.228.525.644.567 1.132h.114l.001.677Zm-28.91 16.288h-.341v-.113h-.227v-.113l-1.134.113c.007.822-.435.886-.34 1.584h-.113c-.03.324-.23.188-.227.452-.306-.072-.391.264-.566.453-.583.336-1.146.14-1.928.113-.23-.236-.48-.407-.68-.679.203-.165.207-.27.453-.226v-.113c.26.064.328-.16.454-.34.363.104.317-.443.68-.339.064-.183.138-.263.34-.226.134-.255.263-.4.567-.34v-.112c.2.037.276-.047.34-.227.463.004.458-.372.794-.339v-.113c.381.068.299-.295.68-.226.004-.237.214-.259.453-.34.073-.268.033-.212.227-.339-.075-.264-.15-.528-.227-.792-.239.01-.184-.201-.226-.452-.309-.087-.259-.027-.34-.34-.309-.086-.258-.027-.34-.339-1.106-.287-.56-.643-2.041-.792v-.113h-.227c-.092-.41-1.096.098-1.247.113-.62-.071-1.19.226-1.814.34.046.862-.368.07-.68.791-.538-.11-.525.945-.794.905v.227h-.115v.452h-.113v.224h-.114v.68h-.113v1.47h.113l.114.452h.113c-.049 1.034.775 1.656 1.474 2.261.267.4.506.671 1.02.566v.113l.453.113v.113h.567v.114h.34v.113h.567v.115l.907-.113v-.113h.227v-.114h.68v-.113c.26.065.328-.16.454-.34.537-.354.972-.351 1.133-1.13.463-.123.138-.05.34-.34h.113c.46-.771.107-1.785.454-1.696v-.791h-.113l.002-.114Zm-6.236-.226c.01.237-.202.191-.454.226l-.113-.565h.113v-.34h.114v-.452h.113c-.088-.311.314-.254.227-.565h.113c.213-.228.099.01.34-.114v-.113c.507-.184 1.586-.656 2.154-.113.309.087.258.027.34.34-.688.183-.973.758-1.7.905l-.114.338c-.225-.015-.39-.024-.453.227-.373-.117-.36.28-.68.226Zm-3.177 4.977c-.134.254-.262.4-.567.34.043.183-.218.157-.34.226.025.532.196.826-.113 1.13-.167.635-.763.718-1.134 1.132-.832.079-1.355-.078-1.814-.34.165-.615.822-.667 1.134-1.13h.227v-.227c.322-.067.54-.064.566-.34.2.038.277-.045.34-.225l.68-.227c.03-.284.383-.358.68-.452v-.226h.341v-.226c.525-.184.766-.493.68-1.019-.266-.036-.273-.239-.34-.565-.828-.281-1.084-1.35-2.04-1.244v-.114h-.34v-.113h-.34c.011-.334-.517.046-.568 0v-.113c-.948-.107-.524.333-1.473.226v.114h-.34v.113c-.26-.065-.328.159-.454.34-.449.02-.657.348-.907.678-.204.066-.402.076-.34.34-.315.02-.21.455-.453.452-.512 1.815-.53 2.403 0 4.072h.113v.226h.114v.225h.116c-.038.199.046.275.227.34.253.37.128.45.68.564.084.621.805.54.907.905h.34v.114l.453.113v.113h.68v.113h1.588c.064-.184.138-.263.34-.226v-.114c.637-.073 1.13-.717 1.7-1.017-.036-.2.047-.276.227-.34.07-.122.04-.382.227-.339-.004-.463.372-.456.34-.792h.113v-.452h.114v-.452c.314-.02.188-.948.113-1.018.033-1.044-.827-.544-1.475-.565h-.002ZM28 27.28c-.096.343-.455.499-.907.566-.24-1.095.195-1.134.34-1.81.084-.138.44-.135.567-.226.148-.506.978-.4 1.247-.226.473.03.896-.05.794.452-.058.173-.843.196-.794.453-.306-.072-.39.264-.566.452-.103.064-.266.074-.227.226h-.227v.113H28Zm-3.288 7.805c.065-.26-.159-.327-.34-.452-.065-.24-.056-.5-.34-.566-.188-.285-.49-.883-.564-1.244h-.227c-.202-.954-1.23-1.737-.567-2.94.329-.288 1.02-.378.907-.905h.113l-.113-.341h.113c-.05-.322-.29-.357-.34-.679-.25-.063-.242-.227-.226-.452h-.114c.044-.248-.06-.245-.227-.453-.237.046-.219.111-.226.113h-.567c-.036.265-.239.276-.567.34-.092.237-.101.445-.34.452v.34h-.114v.226h-.114l.113.226c-.605-.024.143-.476-1.133-.34-.133.46-.23.227-.453.566h-.227c-.123.595-.364-.046-.453.905h.113c-.117.372.28.358.226.678h.114c-.037.2.046.276.227.34l.227.678c.184.064.264.137.227.339h.113v.227h.113v.225h.114c.192.312-.102.209.34.34.05.25-.013.46.227.452-.088.364.197.49.453.679.065.238.058.5.34.565-.116.373.28.36.227.68.184.063.264.137.227.339.184.064.264.138.227.339.184.064.263.138.226.34.224.37.477.773.907.904v-.113c.313.087.255-.314.567-.226.157-.411.645-.497 1.02-.679-.055-.313.175-.804-.226-.903h-.003Zm-5.893-2.15c-.064-.468-.236-.393-.34-.79-.316.054-.807-.173-.907.225-.372-.116-.36.28-.68.227-.007.25-.484.216-.68.339-.126.18-.194.404-.454.34-.175.188-.26.524-.567.452-1.2.462-1.308 1.888-1.814.226-.534.195-.646-1.178-1.02-1.244.032-.57.556-.197.567-.566h.227v-.113c.452.02.276-.455 1.02-.453.107-.313.453-.197.567-.565.46.005.46-.373.794-.34v-.113c.2.038.276-.046.34-.226.322-.05.357-.288.68-.339v-.226c.181.102.43-.594.113-.566v-.452c-.417-.07-.485-.838-1.02-.679.096-.333-.85.198-.907.226-.308.087-.258.027-.34.34a2.263 2.263 0 0 0-.792.339c-.066.322-.388.131-.454.453-.347-.068-.46.362-.68.565-.226-.016-.39-.025-.454.226-.2-.036-.276.046-.34.227-.122.068-.383.04-.34.226-.205.067-.401.075-.34.339-.239.081-.45.102-.453.34-.428.292-.875.326-1.02.904-.112.255.428 1.577.906 1.584.09.237.1.448.34.452.066.238.058.5.34.566-.076.425.34.442.34.905.205.22.635.332.567.679.185.064.264.137.227.339h.114c-.046.209.086.328.227.452-.073.306.264.39.453.566-.053.322.343.305.227.678.244-.003.138.432.453.453.023.505.447.72.794 1.018.121.365.172.746.567.905-.065.26.159.326.34.452-.088.312.314.254.226.566.047.07.152.083.227.226.716-.147 1.127-.533 1.7-.792-.072-1.018-.346-1.803-1.02-2.262.038-.2-.046-.276-.227-.34.065-.259-.158-.326-.34-.452-.349-.522-.47-1.145-1.02-1.47v-.225h.34v-.227c.237-.088.452-.099.454-.339.2.037.276-.046.34-.226.338.032.329-.343.794-.34.333-.551 1.167-.657 1.7-1.018.087-.308.027-.257.34-.339.015-.638.408.168.113-1.131l-.228-.001Z" clip-rule="evenodd"></path></g><defs><clipPath id="a"><path fill="#fff" d="M0 0h72v54H0z"></path></clipPath></defs></svg>