<svg xmlns="http://www.w3.org/2000/svg" width="48" height="48" fill="none"><path fill="#222" d="m26.065 23.305.009-.011.025-.029.012-.016.013-.015.025-.034.006-.008a1.339 1.339 0 0 0 .119-.205l.005-.01a1.227 1.227 0 0 0 .043-.11l.004-.012c.032-.095.052-.193.06-.295v-.005l.002-.02v-.01a.49.49 0 0 0 .002-.017V22.48a1.364 1.364 0 0 0 0-.065v-.008l-.001-.03v-.007l-.003-.032v-.003a1.271 1.271 0 0 0-.063-.296l-.005-.013-.006-.017-.008-.023a1.259 1.259 0 0 0-.485-.6 1.264 1.264 0 0 0-.702-.212c-.279 0-.543.089-.765.256a1.287 1.287 0 0 0-.447.625h-.007a1.265 1.265 0 0 0-.653.236l-.014.01-.012.01a1.277 1.277 0 0 0-.341.388l-.002.004a1.277 1.277 0 0 0 1.11 1.902c.565 0 1.045-.37 1.212-.88.3-.018.582-.142.8-.351l.001-.002a1.37 1.37 0 0 0 .035-.034l.001-.002h.001l.029-.031Zm.144-.35c-.036.076-.08.15-.13.218l-.005.006-.024.03-.011.014a.762.762 0 0 1-.03.035l-.007.007c-.008.01-.017.018-.026.027l-.002.003-.062-.064.313-.314-.015.035-.001.003Zm.044-.896.006.02.003.008c.027.085.044.172.052.261v.002l.002.03v.005l.002.027v.006a1.21 1.21 0 0 1 0 .07v.009l-.002.035v.002a1.166 1.166 0 0 1-.009.08l-1.077-.18.969-.506a1.183 1.183 0 0 1 .054.131Zm-.814.484-.094.094-.126-.132.22.038Zm.088.014.185.031-.212.212-.105-.11.133-.133Zm.273.046.25.042-.356.357-.143-.15.249-.249Zm.338.057.157.027a1.23 1.23 0 0 1-.017.074l-.416.417-.118-.123.394-.395Zm-2.152 1.873a1.204 1.204 0 0 1-1.06-1.77c.15.057.323.087.5.087.316 0 .612-.097.788-.256a.57.57 0 0 0 .818.142 1.204 1.204 0 0 1-1.046 1.796Zm1.09-1.867-.003-.004a1.283 1.283 0 0 0-.62-.521 1.302 1.302 0 0 0-.095-.033l-.011-.004-.03-.008-.005-.002a1.325 1.325 0 0 0-.2-.036h-.002a1.396 1.396 0 0 0-.037-.003h-.009l-.03-.002h-.01l-.038-.001h-.003c.078-.222.223-.421.413-.564a1.192 1.192 0 0 1 1.357-.058l-.666 1.001-.001.002-.001.001-.001.002-.001.002v.002l-.001.001v.003l-.001.001v.016l.001.001v.002l.002.002v.001l.001.002.002.002v.001l.002.002v.002h.001l.831.87c-.195.176-.44.283-.701.305a1.28 1.28 0 0 0-.144-.985Z"></path><path fill="#222" d="M24.414 22.901c-.057 0-.098.07-.098.165 0 .096.041.165.098.165s.098-.07.098-.165-.041-.165-.098-.165ZM23.618 22.901c-.057 0-.098.07-.098.165 0 .096.041.165.098.165s.098-.07.098-.165-.041-.165-.098-.165ZM24.016 23.545c.103 0 .194-.05.228-.127a.036.036 0 1 0-.066-.03c-.022.05-.089.084-.162.084-.073 0-.14-.034-.162-.083a.036.036 0 1 0-.066.03c.034.075.125.126.228.126ZM24.305 23.7a.396.396 0 0 0-.29.074.396.396 0 0 0-.288-.073.036.036 0 0 0-.03.048c.037.098.168.167.319.167s.282-.069.318-.167a.036.036 0 0 0-.03-.049Z"></path><g fill="#222" clip-path="url(#a)"><path d="M38.016 25.985c-2.793-.665-7.061-.878-11.534 1.878a.42.42 0 1 0 .44.715c4.229-2.604 8.261-2.403 10.9-1.775a.42.42 0 0 0 .194-.818ZM26.703 22.586c.075 0 .15-.02.22-.063 4.228-2.604 8.26-2.403 10.898-1.775a.42.42 0 1 0 .195-.819c-2.793-.664-7.061-.877-11.534 1.879a.42.42 0 0 0 .22.778ZM26.703 16.53c.075 0 .15-.02.22-.062 4.228-2.604 8.26-2.403 10.898-1.776a.42.42 0 1 0 .195-.818c-2.793-.664-7.061-.878-11.534 1.878a.42.42 0 0 0 .22.779Z"></path><path d="M41.041 11.177V9.633a.42.42 0 0 0-.23-.375c-.09-.046-2.256-1.127-5.458-1.248-2.884-.108-7.168.584-11.353 4.432-4.185-3.848-8.468-4.54-11.354-4.432-3.2.121-5.366 1.202-5.457 1.248a.42.42 0 0 0-.23.375v1.544A2.724 2.724 0 0 0 5 13.777v23.127a2.713 2.713 0 0 0 2.71 2.71h32.58a2.713 2.713 0 0 0 2.71-2.71V13.777c0-1.212-.82-2.27-1.959-2.6ZM17.367 26.686c.02-.23-.026-.461-.131-.665.92.433 1.9.658 2.86.658.322 0 .643-.026.959-.077.253-.041.497-.1.732-.171a4 4 0 0 1-1.024.502c-1.034.333-2.215.243-3.396-.247Zm6.323-2.706c-.557.956-1.54 1.592-2.77 1.792-1.26.204-2.622-.072-3.834-.778-2.475-1.442-3.54-4.244-2.374-6.245.557-.956 1.54-1.592 2.77-1.792a5.15 5.15 0 0 1 .825-.066c1.014 0 2.058.29 3.009.844 2.475 1.442 3.54 4.244 2.374 6.245ZM13.6 21.917c.37 1.302 1.243 2.549 2.52 3.453-.221.009-.436.077-.622.2-.771-.62-1.5-1.467-1.78-2.566a3.936 3.936 0 0 1-.118-1.087Zm3.446 5.547c.814.337 1.633.509 2.42.509.175 0 .348-.01.519-.026a.415.415 0 0 0 .088.063c.337.174.675.366 1.004.569a.42.42 0 0 0 .579-.138.42.42 0 0 0-.137-.578c-.107-.066-.214-.13-.321-.192.922-.338 1.727-.959 2.381-1.831v9.608c-3.136-2.724-6.3-3.723-8.862-3.986l2.33-3.998Zm22.74 5.76-.053.06-.067.076-.05.061-.06.077-.046.062a3.118 3.118 0 0 0-.334.562l-.034.08-.026.063-.03.082-.02.062c-.01.028-.018.056-.026.084l-.017.06-.02.09c-.004.018-.009.037-.012.056a2.359 2.359 0 0 0-.016.098l-.007.049a2.298 2.298 0 0 0 .145 1.134H25.092c3.054-2.617 6.478-3.877 10.193-3.747 2.098.074 3.75.597 4.573.915-.025.025-.049.05-.072.076Zm-27.85.61a1.208 1.208 0 0 0 1.653-.436l.663-1.138c3.125.221 6.028 1.468 8.656 3.72H8.888a2.297 2.297 0 0 0 .144-1.134l-.007-.048-.016-.099c-.003-.019-.008-.038-.012-.056l-.02-.09-.017-.06-.025-.084-.021-.062-.03-.082-.026-.063a2.768 2.768 0 0 0-.313-.566 4.013 4.013 0 0 0-.162-.215c-.016-.02-.032-.04-.05-.06a3.475 3.475 0 0 0-.066-.077l-.053-.06-.072-.076c.646-.249 1.801-.624 3.283-.81a1.208 1.208 0 0 0 .511 1.495ZM35.285 8.848c2.45.086 4.291.785 4.915 1.054v22.473c-.868-.34-2.603-.897-4.847-.981-2.787-.106-6.883.536-10.933 4.053V24.594c0-.05-.01-.096-.025-.14l.035-.074c.796-1.388.73-3.076-.021-4.576a.419.419 0 0 0 .011-.095v-6.512c3.22-3.025 6.875-4.489 10.865-4.348ZM7.8 9.902c.619-.267 2.439-.96 4.878-1.051 4.004-.151 7.67 1.31 10.902 4.346v5.35a7.033 7.033 0 0 0-1.84-1.539c-1.38-.804-2.94-1.117-4.392-.881-1.483.24-2.677 1.021-3.362 2.198-.06.103-.113.207-.164.313a8.916 8.916 0 0 0-.466.874 15.446 15.446 0 0 0-3.372.417.42.42 0 0 0 .195.819 14.583 14.583 0 0 1 2.847-.386c-.312.988-.355 1.942-.123 2.85.218.857.682 1.656 1.365 2.37a15.257 15.257 0 0 0-4.284.403.42.42 0 0 0 .195.818 14.377 14.377 0 0 1 4.652-.34l-2.899 4.976c-1.896.16-3.359.633-4.132.937V9.902Z"></path><path d="M10.179 14.693c2.638-.628 6.67-.83 10.898 1.775a.418.418 0 0 0 .579-.137.42.42 0 0 0-.138-.579c-4.473-2.756-8.74-2.542-11.534-1.878a.42.42 0 0 0 .195.819ZM21.19 17.95c-2.244-1.308-4.963-.84-6.06 1.042-1.098 1.883-.164 4.48 2.082 5.787a5.33 5.33 0 0 0 2.671.742c1.42 0 2.713-.623 3.39-1.784 1.097-1.883.163-4.48-2.082-5.787Zm1.356 5.363c-.864 1.482-3.067 1.814-4.911.74-1.275-.743-2.049-1.966-2.121-3.14.305.045.61.099.91.164 1.537.332 3.029.94 4.433 1.804a.84.84 0 1 0 .882-1.432 15.82 15.82 0 0 0-4.96-2.016h-.001c-.276-.06-.555-.111-.834-.155.541-.806 1.502-1.233 2.567-1.233.738 0 1.526.205 2.256.631 1.845 1.075 2.643 3.155 1.78 4.637Z"></path></g><defs><clipPath id="a"><path fill="#fff" d="M5 8h38v31.614H5z"></path></clipPath></defs></svg>